<svg id="Layer_1" data-name="Layer 1" xmlns="http://www.w3.org/2000/svg" width="162.5" height="103.13" viewBox="0 0 162.5 103.13"><defs><style>.cls-1{fill:none;}.cls-2{fill:#776250;}.cls-3{fill:#594633;}.cls-4{fill:#776351;}</style></defs><path class="cls-1" d="M53.31,48.45a7.54,7.54,0,0,1-1-2.48c-.75-3.44,1.36-7.18,4.43-10a38.74,38.74,0,0,0-6.48,3.93c-5.92,4.47-7.47,8.22-10.91,7.8a5.33,5.33,0,0,1-2.59-1.13,42.08,42.08,0,0,0-4.17,4.08,24.3,24.3,0,0,0-2.29,3.1c4.73-.4,10.16.85,13,3.85C44.31,52.56,49.18,49.55,53.31,48.45Z"/><path class="cls-1" d="M73.49,57.13a32.09,32.09,0,0,0,3.73-.4c-3.13-.26-4.65,0-5.63-1.52-1.36-2.07-.68-5.35,1-8-1.06.09-2.22.23-3.55.46A47.86,47.86,0,0,0,63.71,49a8.14,8.14,0,0,1,4.85,4.24,5.82,5.82,0,0,1,.25,3.8A40.88,40.88,0,0,0,73.49,57.13Z"/><path class="cls-1" d="M87.69,66.47a3.93,3.93,0,0,1-.55-1.85,5.9,5.9,0,0,1,1.57-4,6.6,6.6,0,0,1,.77-.73c-1.28-.47-2.77-1.08-4.62-1.65a10.05,10.05,0,0,1-1.1,8c-2.77,4.53-9,5.24-13,4.43a16.17,16.17,0,0,1-2-.53,7.59,7.59,0,0,1,2.91,4.26,6.93,6.93,0,0,1,.15,1.7c.94-2.41,4.12-2.39,9.17-5.12C85,68.85,86.36,67,87.69,66.47Z"/><path class="cls-1" d="M67.45,19.28c1.49,3.19,2,6.69.37,9.19A5.69,5.69,0,0,1,64.59,31c-2.36.58-4-1.09-7.14-3.42C59,29.22,60,31.21,59.64,33.05a2.6,2.6,0,0,1-.22.73,18.32,18.32,0,0,1,2.65-1.48,18,18,0,0,1,12.26-1,3.64,3.64,0,0,1-.9-1.34,5.79,5.79,0,0,1,.17-4.19,8.12,8.12,0,0,1,4.58-4.17A28.59,28.59,0,0,0,73,20,41.87,41.87,0,0,0,67.45,19.28Z"/><path class="cls-1" d="M98,57a5.89,5.89,0,0,1,0-4.3,3.5,3.5,0,0,1,.24-.56,2.68,2.68,0,0,1-1.16.34,7,7,0,0,1,.3,4.37,6.41,6.41,0,0,1-.48,1.25,19,19,0,0,1,2.23.31A3.77,3.77,0,0,1,98,57Z"/><path class="cls-1" d="M94.42,40.7c-1.94-.07-3.56-2.47-9.23-5A63.58,63.58,0,0,0,77.52,33a10.78,10.78,0,0,1,1.27,1.09,12.76,12.76,0,0,1,3.56,8.36A16.53,16.53,0,0,1,92.8,46.7a9.3,9.3,0,0,1,.09-2.59A8,8,0,0,1,94.42,40.7Z"/><path class="cls-2" d="M95.66,53c.16-.24-.87-1.21-2.32-2.57a28.17,28.17,0,0,0-2.74-2.27,22.29,22.29,0,0,0-4.18-2.42,15.33,15.33,0,0,0-3.5-1.16c-.07,0-.4-.06-.9-.1a4.58,4.58,0,0,1-.68,1.34c-1.16,1.57-2.79,1.27-6.11,1.33a2.26,2.26,0,0,0,.2,1.29c.89,1.57,4.85-.28,9.46.13C91.09,49.09,95.34,53.46,95.66,53Z"/><path class="cls-2" d="M85.2,82.75l-.1.13a22.65,22.65,0,0,0-2.76,4.25,28.43,28.43,0,0,0-1.49,3.43c-.71,2-1.21,3.36-.94,3.51.53.3,2.42-5.81,8-9.27,4.12-2.58,8.7-2.72,8.79-4.62a2.34,2.34,0,0,0-.88-1.8,2.78,2.78,0,0,0-2-.44,10.42,10.42,0,0,0-2.41.44A13.23,13.23,0,0,1,85.2,82.75Z"/><path class="cls-2" d="M91.57,73.93a1.86,1.86,0,0,0-1.08-1.17c-1.44-.48-2.86,2.88-5.95,5.19-4.16,3.11-9.24,2.77-9.16,3.25,0,.24,1.21.27,2.87.31a25.26,25.26,0,0,0,3-.12,18.9,18.9,0,0,0,4-.83A13.06,13.06,0,0,0,88,79.33a9.63,9.63,0,0,0,3.35-3.83A2.17,2.17,0,0,0,91.57,73.93Z"/><path class="cls-3" d="M103.77,89.3c-4.1.15-9.12,2.52-9.74,6.14a4.34,4.34,0,0,0,.55,3.13c1.42,2.12,4.26,1.16,9.61,2.3s6.62,3,8.33,1.95c2.17-1.32,2.53-5.33,1.41-8.1C112.24,90.6,107.22,89.17,103.77,89.3Zm8.32,7.5c-1.15.8-3.29-1.81-6.65-3-4.51-1.67-8.92,0-9-.48,0-.23,1-.56,2.47-1a20.07,20.07,0,0,1,2.67-.67,16.55,16.55,0,0,1,3.72-.3,11.61,11.61,0,0,1,2.82.35,8.84,8.84,0,0,1,4,2.52,2,2,0,0,1,.63,1.33A1.78,1.78,0,0,1,112.09,96.8Z"/><path class="cls-4" d="M108.14,91.62a11.61,11.61,0,0,0-2.82-.35,16.55,16.55,0,0,0-3.72.3,20.07,20.07,0,0,0-2.67.67c-1.47.47-2.5.8-2.47,1,.06.44,4.47-1.19,9,.48,3.36,1.24,5.5,3.85,6.65,3a1.78,1.78,0,0,0,.66-1.33,2,2,0,0,0-.63-1.33A8.84,8.84,0,0,0,108.14,91.62Z"/><path class="cls-3" d="M132.78,81.83c-2.32-.06-2.39,2.63-6.89,7s-7.88,5-7.92,8.11a5.67,5.67,0,0,0,1.44,3.58c2.91,3.4,9.32,2.88,13.41.6,3.45-1.92,7.45-6.4,6.48-11.69C138.65,85.88,135.75,81.92,132.78,81.83Zm5.13,9.28a10.15,10.15,0,0,1-2.29,5,12.89,12.89,0,0,1-2.53,2.05,18.46,18.46,0,0,1-3.83,1.9,22.93,22.93,0,0,1-3,.89c-1.73.38-3,.65-3.07.4-.22-.5,5.13-1.43,8.47-5.85,2.49-3.29,2.93-7.28,4.56-7.13a2.19,2.19,0,0,1,1.48,1A2.61,2.61,0,0,1,137.91,91.11Z"/><path class="cls-2" d="M136.19,88.36c-1.63-.15-2.07,3.84-4.56,7.13-3.34,4.42-8.69,5.35-8.47,5.85.12.25,1.34,0,3.07-.4a22.93,22.93,0,0,0,3-.89,18.46,18.46,0,0,0,3.83-1.9,12.89,12.89,0,0,0,2.53-2.05,10.15,10.15,0,0,0,2.29-5,2.61,2.61,0,0,0-.24-1.76A2.19,2.19,0,0,0,136.19,88.36Z"/><path class="cls-2" d="M46.46,99.39a14.42,14.42,0,0,0,3.48.47,19.82,19.82,0,0,0,4.58-.4,25.43,25.43,0,0,0,3.29-.89c1.81-.61,3.08-1,3-1.34-.07-.59-5.51,1.56-11.07-.63-4.13-1.64-6.77-5.06-8.19-4a2.34,2.34,0,0,0-.8,1.74,2.7,2.7,0,0,0,.77,1.75A10.73,10.73,0,0,0,46.46,99.39Z"/><path class="cls-2" d="M96.65,60.36c-2-.49-3.46-.84-3.59-.56-.24.56,6,1.79,10.08,6.91,3,3.82,3.66,8.35,5.56,8.24a2.41,2.41,0,0,0,1.69-1.08,2.76,2.76,0,0,0,.22-2,12.14,12.14,0,0,0-2.83-5.74,16,16,0,0,0-3-2.4,22.37,22.37,0,0,0-4.53-2.28A26.63,26.63,0,0,0,96.65,60.36Z"/><path class="cls-2" d="M68.66,67.57A21.14,21.14,0,0,0,73,68.64a14.74,14.74,0,0,0,3.39.12,10.59,10.59,0,0,0,5.16-2.2,2.43,2.43,0,0,0,1-1.45A2.1,2.1,0,0,0,82,63.43c-1.2-1.17-4.22,1.49-8.41,2.31-5.62,1.1-10.5-1.67-10.66-1.16-.08.26,1.08.85,2.71,1.68A25.17,25.17,0,0,0,68.66,67.57Z"/><path class="cls-2" d="M65.1,70.42a28.77,28.77,0,0,0-3.57-.75,22.64,22.64,0,0,0-4.93-.2,16,16,0,0,0-3.71.63,11.65,11.65,0,0,0-5.12,3.54A2.7,2.7,0,0,0,47,75.43,2.35,2.35,0,0,0,48,77.15c1.56,1,4.25-2.56,8.62-4.39,5.86-2.45,11.79-.53,11.84-1.12C68.44,71.34,67.06,71,65.1,70.42Z"/><path class="cls-2" d="M64.89,51.17c0-.3-1.42-.43-3.4-.62-1-.1-1.93-.13-2.58-.14a6.2,6.2,0,0,1-2.65.12,21.47,21.47,0,0,0-3.11.54,15.85,15.85,0,0,0-3.47,1.22,11.43,11.43,0,0,0-4.33,4.28,2.59,2.59,0,0,0-.42,1.85,2.26,2.26,0,0,0,1.19,1.49c1.67.7,3.66-3.18,7.56-5.67C58.91,50.89,64.94,51.74,64.89,51.17Z"/><path class="cls-3" d="M68.07,81.8c-3.06-.14-6.83,1.47-7.37,3.88-.43,1.88,1.81,2.44,4.74,6.94s3,7.37,5.51,8a4.77,4.77,0,0,0,3.22-.5c3.31-1.73,3.89-7,2.64-10.81C75.75,86.12,72.65,82,68.07,81.8Zm7.38,15.41c-.45.08-.37-4.45-3.53-8-2.36-2.65-5.62-3.77-5.23-5.07a1.71,1.71,0,0,1,1.06-1,2.14,2.14,0,0,1,1.5.14,9,9,0,0,1,3.81,2.8,11.8,11.8,0,0,1,1.31,2.46,15.88,15.88,0,0,1,1,3.47,20.1,20.1,0,0,1,.25,2.65C75.65,96.12,75.68,97.16,75.45,97.21Z"/><path class="cls-2" d="M75.35,92a15.88,15.88,0,0,0-1-3.47,11.8,11.8,0,0,0-1.31-2.46,9,9,0,0,0-3.81-2.8,2.14,2.14,0,0,0-1.5-.14,1.71,1.71,0,0,0-1.06,1c-.39,1.3,2.87,2.42,5.23,5.07,3.16,3.56,3.08,8.09,3.53,8,.23,0,.2-1.09.15-2.57A20.1,20.1,0,0,0,75.35,92Z"/><path class="cls-3" d="M126.92,83.61c1.9-4.16,2.69-11-1.49-15.16a11.89,11.89,0,0,0-3.49-2.32c2.57-1.83,3.6-6.49,2.78-10-1.36-5.9-7.78-8.9-12.43-9.49a18,18,0,0,0-2.1-.12c2.06-.63,3.4-1.12,4-2.61a4.72,4.72,0,0,0-.12-3.42c-1.47-3.69-7.3-5.08-11.66-4.32a14.48,14.48,0,0,0-3.88,1.29,11.86,11.86,0,0,0,1-6.92c-1-5.81-7.1-9.07-11.59-9.88a18.22,18.22,0,0,0-5.23-.14,8.52,8.52,0,0,0,.09-6.62C81.09,9.73,76.07,8.3,72.62,8.43c-3.7.13-8.13,2.08-9.43,5.12-3.32-2.89-9-5.38-13.83-3-3.49,1.67-6.62,5.83-5.68,9,.7,2.35,3.3,1.86,8.8,4.85C46.79,22.51,40.92,26.35,38,30a18.59,18.59,0,0,0-3.79,8.61,11.78,11.78,0,0,0-8,2c-2.75,1.9-5.83,6-4.75,10.48a9.85,9.85,0,0,0,2.39,4.33c-3.93,1.81-7.66,5-8.49,9.71-.77,4.42,1,10.2,4.66,11.45,2.84,1,4.12-2.16,11.62-5.53,6.92-3.11,11.25-2.94,13-5.7a5.2,5.2,0,0,0,2.62,2.29c2.44.84,3.55-1.86,10-4.75,1.18-.54,2.28-1,3.29-1.31,0,2.37,1.63,4.54,3.85,6.19a18.32,18.32,0,0,0-5.82-1C54,66.81,47.42,69,45.41,74.51A12.43,12.43,0,0,0,45,76.05a4.87,4.87,0,0,0-.17-.88,6.54,6.54,0,0,0-3.11-3.56c-4.79-2.67-12.23.94-16.23,5.55-3.36,3.89-6.4,11.06-3.19,16.87,2.16,3.9,7.14,7.24,10.72,6,2.79-1,1.83-4.23,5.51-11.5.22-.45.45-.88.68-1.29a12.21,12.21,0,0,0,.13,8.13c2.08,5.41,8.27,7.28,12.52,7.12,5-.2,11.23-3.31,12-8.07a6.11,6.11,0,0,0-.67-4.11c-1.76-2.78-5.25-1.53-11.84-3s-8.16-3.93-10.26-2.56a3.85,3.85,0,0,0-.86.76c2.08-3.43,3.92-5.55,4.57-7.53-.13,3,.82,6,2.93,7.22,2.31,1.28,3.9-1.24,10.9-3s10.8-.68,12.57-3.56a4.46,4.46,0,0,0,.46-1,5.21,5.21,0,0,0,.56,2.18c1.39,2.82,5.38,4,9.12,3.8C78.35,88,77,95,80.24,98.48a5.84,5.84,0,0,0,3.81,2c3.46.22,4.79-3.62,10.44-8.43s8.71-4.64,9-7.34c.38-3.44-3.63-7.15-7.54-8.22a9.83,9.83,0,0,0-3.34-.32A7.77,7.77,0,0,0,93,74.35a9.66,9.66,0,0,0-.36-3.6,46.13,46.13,0,0,1,4,3.33c5.39,5.09,5.56,8.15,8.27,8.15,3.46,0,6.71-4.39,7.36-8.39,1-6-3.86-11.18-8-13.47l-.07,0a48.39,48.39,0,0,1,6.06,1.86,36.4,36.4,0,0,1,6.24,3.14,4.41,4.41,0,0,0-1.76.76c-2.13,1.55-.5,4.06-1.81,11.16s-3.91,10.09-2,12.91a5.74,5.74,0,0,0,3.54,2.24C119.24,93.47,124.68,88.53,126.92,83.61Zm-97.84-.34c-1.69,5.06-.67,10-2.67,10.58a2.63,2.63,0,0,1-2.15-.48,3.09,3.09,0,0,1-1-2,13.35,13.35,0,0,1,.79-7,17.28,17.28,0,0,1,2.23-3.61,24.93,24.93,0,0,1,3.82-4,32,32,0,0,1,3.28-2.47c1.91-1.26,3.26-2.15,3.49-1.91C37.38,72.88,31.35,76.47,29.08,83.27Zm12.51,9.32c1.42-1,4.06,2.37,8.19,4,5.56,2.19,11,0,11.07.63,0,.29-1.23.73-3,1.34a25.43,25.43,0,0,1-3.29.89,19.82,19.82,0,0,1-4.58.4,14.42,14.42,0,0,1-3.48-.47,10.73,10.73,0,0,1-4.9-3.31,2.7,2.7,0,0,1-.77-1.75A2.34,2.34,0,0,1,41.59,92.59ZM105.21,38a23.78,23.78,0,0,1,3,.12c1.65.17,2.82.29,2.84.53,0,.49-5-.26-9.39,2.51-3.27,2.07-4.95,5.3-6.34,4.71a1.87,1.87,0,0,1-1-1.26,2.16,2.16,0,0,1,.36-1.54,9.57,9.57,0,0,1,3.65-3.55,13.3,13.3,0,0,1,2.9-1A18.69,18.69,0,0,1,105.21,38ZM68.56,53.25A8.14,8.14,0,0,0,63.71,49,47.86,47.86,0,0,1,69,47.72c1.33-.23,2.49-.37,3.55-.46-1.64,2.6-2.32,5.88-1,8,1,1.5,2.5,1.26,5.63,1.52a32.09,32.09,0,0,1-3.73.4,40.88,40.88,0,0,1-4.68-.08A5.82,5.82,0,0,0,68.56,53.25ZM60.38,36.57a24.45,24.45,0,0,1,4.87-2.46,17.35,17.35,0,0,1,4-1.07A12.88,12.88,0,0,1,76,34.26a2.93,2.93,0,0,1,1.57,1.46,2.56,2.56,0,0,1-.15,2.15c-1.12,1.72-5.45-.63-10.68-.47-7,.22-12.09,4.86-12.42,4.29-.16-.28,1.06-1.3,2.78-2.74A30.51,30.51,0,0,1,60.38,36.57ZM92.8,46.7a16.53,16.53,0,0,0-10.45-4.29,12.76,12.76,0,0,0-3.56-8.36A10.78,10.78,0,0,0,77.52,33a63.58,63.58,0,0,1,7.67,2.71c5.67,2.56,7.29,5,9.23,5a8,8,0,0,0-1.53,3.41A9.3,9.3,0,0,0,92.8,46.7ZM75.43,48.41a2.26,2.26,0,0,1-.2-1.29c3.32-.06,5,.24,6.11-1.33A4.58,4.58,0,0,0,82,44.45c.5,0,.83.09.9.1a15.33,15.33,0,0,1,3.5,1.16,22.29,22.29,0,0,1,4.18,2.42,28.17,28.17,0,0,1,2.74,2.27c1.45,1.36,2.48,2.33,2.32,2.57-.32.49-4.57-3.88-10.77-4.43C80.28,48.13,76.32,50,75.43,48.41Zm9-25.48a22.16,22.16,0,0,1,4.9.66,15.62,15.62,0,0,1,3.54,1.26,11.64,11.64,0,0,1,4.43,4.38,2.65,2.65,0,0,1,.43,1.89,2.35,2.35,0,0,1-1.22,1.53c-1.71.71-3.74-3.26-7.72-5.82-5.35-3.43-11.52-2.56-11.48-3.16,0-.29,1.46-.43,3.48-.62A26.42,26.42,0,0,1,84.47,22.93ZM73.6,25.8A5.79,5.79,0,0,0,73.43,30a3.64,3.64,0,0,0,.9,1.34,18,18,0,0,0-12.26,1,18.32,18.32,0,0,0-2.65,1.48,2.6,2.6,0,0,0,.22-.73c.32-1.84-.64-3.83-2.19-5.48,3.13,2.33,4.78,4,7.14,3.42a5.69,5.69,0,0,0,3.23-2.52c1.59-2.5,1.12-6-.37-9.19A41.87,41.87,0,0,1,73,20a28.59,28.59,0,0,1,5.14,1.63A8.12,8.12,0,0,0,73.6,25.8ZM67.78,11.37a21.92,21.92,0,0,1,2.67-.67,16.55,16.55,0,0,1,3.72-.3,11.61,11.61,0,0,1,2.82.35,8.94,8.94,0,0,1,4,2.52,2,2,0,0,1,.63,1.33,1.78,1.78,0,0,1-.66,1.33c-1.14.8-3.29-1.81-6.64-3-4.51-1.67-8.93,0-9-.48C65.28,12.18,66.31,11.84,67.78,11.37ZM49.31,14.09a2.26,2.26,0,0,1,.53-1.84,2.6,2.6,0,0,1,1.75-.73,11.6,11.6,0,0,1,6,1,15.25,15.25,0,0,1,3,2.11,20.42,20.42,0,0,1,2.56,2.58,3.57,3.57,0,0,0,.26.46,3,3,0,0,0,.66.7,27.81,27.81,0,0,1,1.81,2.74c1,1.72,1.71,2.94,1.48,3.13-.44.37-3.26-5-9-7.34C54,15.22,49.72,15.86,49.31,14.09ZM36.7,37.56a26.19,26.19,0,0,1,1.69-3.34,23,23,0,0,1,3-4.09,16.78,16.78,0,0,1,2.88-2.57,12,12,0,0,1,6.13-1.84,2.77,2.77,0,0,1,1.92.55,2.37,2.37,0,0,1,.77,1.85c-.2,1.89-4.78,1.77-9,4.1a21.1,21.1,0,0,0-7.36,7.37,5.11,5.11,0,0,0-.68-.41Q36.31,38.46,36.7,37.56ZM22.78,51a2.25,2.25,0,0,1-.29-1.49,9,9,0,0,1,1.64-4.44,11.37,11.37,0,0,1,2-1.94,15.43,15.43,0,0,1,3.06-1.91,21,21,0,0,1,2.47-1c1.41-.45,2.4-.77,2.51-.57.21.41-4.17,1.6-6.71,5.64-1.88,3-2,6.44-3.4,6.43A1.74,1.74,0,0,1,22.78,51Zm4.71,10c-4.54,2.9-6.86,7.42-8.8,6.6a2.59,2.59,0,0,1-1.38-1.74,3,3,0,0,1,.49-2.15,13.27,13.27,0,0,1,5-5,17.88,17.88,0,0,1,4-1.43,25,25,0,0,1,5.56-.74,29.82,29.82,0,0,1,4.14.14c2.31.22,3.93.38,4,.71C40.59,58.09,33.58,57.09,27.49,61Zm2.77-7.29a24.3,24.3,0,0,1,2.29-3.1,42.08,42.08,0,0,1,4.17-4.08,5.33,5.33,0,0,0,2.59,1.13c3.44.42,5-3.33,10.91-7.8a38.74,38.74,0,0,1,6.48-3.93c-3.07,2.87-5.18,6.61-4.43,10a7.54,7.54,0,0,0,1,2.48c-4.13,1.1-9,4.11-10,9.1C40.42,54.55,35,53.3,30.26,53.7Zm23.42.54c-3.9,2.49-5.89,6.37-7.56,5.67a2.26,2.26,0,0,1-1.19-1.49,2.59,2.59,0,0,1,.42-1.85,11.43,11.43,0,0,1,4.33-4.28,15.85,15.85,0,0,1,3.47-1.22,21.47,21.47,0,0,1,3.11-.54,6.2,6.2,0,0,0,2.65-.12c.65,0,1.54,0,2.58.14,2,.19,3.38.32,3.4.62C64.94,51.74,58.91,50.89,53.68,54.24Zm9.26,10.34c.16-.51,5,2.26,10.66,1.16,4.19-.82,7.21-3.48,8.41-2.31a2.1,2.1,0,0,1,.51,1.68,2.43,2.43,0,0,1-1,1.45,10.59,10.59,0,0,1-5.16,2.2A14.74,14.74,0,0,1,73,68.64a21.14,21.14,0,0,1-4.32-1.07,25.17,25.17,0,0,1-3-1.31C64,65.43,62.86,64.84,62.94,64.58Zm-6.37,8.18c-4.37,1.83-7.06,5.39-8.62,4.39A2.35,2.35,0,0,1,47,75.43a2.7,2.7,0,0,1,.76-1.79,11.65,11.65,0,0,1,5.12-3.54,16,16,0,0,1,3.71-.63,22.64,22.64,0,0,1,4.93.2,28.77,28.77,0,0,1,3.57.75c2,.54,3.34.92,3.31,1.22C68.36,72.23,62.43,70.31,56.57,72.76Zm15.32,3.32a6.93,6.93,0,0,0-.15-1.7,7.59,7.59,0,0,0-2.91-4.26,16.17,16.17,0,0,0,2,.53c4,.81,10.21.1,13-4.43a10.05,10.05,0,0,0,1.1-8c1.85.57,3.34,1.18,4.62,1.65a6.6,6.6,0,0,0-.77.73,5.9,5.9,0,0,0-1.57,4,3.93,3.93,0,0,0,.55,1.85C86.36,67,85,68.85,81.06,71,76,73.69,72.83,73.67,71.89,76.08Zm21.94,1.86a2.78,2.78,0,0,1,2,.44,2.34,2.34,0,0,1,.88,1.8c-.09,1.9-4.67,2-8.79,4.62-5.54,3.46-7.43,9.57-8,9.27-.27-.15.23-1.54.94-3.51a28.43,28.43,0,0,1,1.49-3.43,22.65,22.65,0,0,1,2.76-4.25l.1-.13a13.23,13.23,0,0,0,6.22-4.37A10.42,10.42,0,0,1,93.83,77.94ZM88,79.33a13.06,13.06,0,0,1-2.81,1.23,18.9,18.9,0,0,1-4,.83,25.26,25.26,0,0,1-3,.12c-1.66,0-2.83-.07-2.87-.31-.08-.48,5-.14,9.16-3.25,3.09-2.31,4.51-5.67,5.95-5.19a1.86,1.86,0,0,1,1.08,1.17,2.17,2.17,0,0,1-.24,1.57A9.63,9.63,0,0,1,88,79.33Zm16.77-15.58a16,16,0,0,1,3,2.4,12.14,12.14,0,0,1,2.83,5.74,2.76,2.76,0,0,1-.22,2A2.41,2.41,0,0,1,108.7,75c-1.9.11-2.55-4.42-5.56-8.24-4-5.12-10.32-6.35-10.08-6.91.13-.28,1.56.07,3.59.56a26.63,26.63,0,0,1,3.57,1.11A22.37,22.37,0,0,1,104.75,63.75Zm-8-5.64a6.41,6.41,0,0,0,.48-1.25,7,7,0,0,0-.3-4.37,2.68,2.68,0,0,0,1.16-.34,3.5,3.5,0,0,0-.24.56A5.89,5.89,0,0,0,98,57,3.77,3.77,0,0,0,99,58.42,19,19,0,0,0,96.8,58.11Zm4.82-7.79c0-.31,1.47-.53,3.54-.84a29.21,29.21,0,0,1,3.72-.32,23.57,23.57,0,0,1,5.06.41,16.44,16.44,0,0,1,3.7,1.09,12.13,12.13,0,0,1,4.79,4.24,2.76,2.76,0,0,1,.54,1.92,2.39,2.39,0,0,1-1.16,1.64c-1.72.82-4-3.14-8.25-5.54C107.89,49.7,101.61,50.93,101.62,50.32ZM120.88,88c-1.31,1.56-2.24,2.65-2.5,2.5-.51-.29,3.72-4.87,4-11.22.18-4.73-1.93-8.67-.37-9.67a2.35,2.35,0,0,1,2-.12A2.64,2.64,0,0,1,125.22,71a11.83,11.83,0,0,1,1.08,6.14,16.36,16.36,0,0,1-1,3.63,22.33,22.33,0,0,1-2.26,4.39A25.55,25.55,0,0,1,120.88,88Z"/><path class="cls-2" d="M126.3,77.09A11.83,11.83,0,0,0,125.22,71a2.64,2.64,0,0,0-1.31-1.43,2.35,2.35,0,0,0-2,.12c-1.56,1,.55,4.94.37,9.67-.23,6.35-4.46,10.93-4,11.22.26.15,1.19-.94,2.5-2.5a25.55,25.55,0,0,0,2.17-2.92,22.33,22.33,0,0,0,2.26-4.39A16.36,16.36,0,0,0,126.3,77.09Z"/><path class="cls-2" d="M33.42,74.3a32,32,0,0,0-3.28,2.47,24.93,24.93,0,0,0-3.82,4,17.28,17.28,0,0,0-2.23,3.61,13.35,13.35,0,0,0-.79,7,3.09,3.09,0,0,0,1,2,2.63,2.63,0,0,0,2.15.48c2-.58,1-5.52,2.67-10.58,2.27-6.8,8.3-10.39,7.83-10.88C36.68,72.15,35.33,73,33.42,74.3Z"/><path class="cls-2" d="M36.58,56.7a29.82,29.82,0,0,0-4.14-.14,25,25,0,0,0-5.56.74,17.88,17.88,0,0,0-4,1.43,13.27,13.27,0,0,0-5,5,3,3,0,0,0-.49,2.15,2.59,2.59,0,0,0,1.38,1.74c1.94.82,4.26-3.7,8.8-6.6,6.09-3.9,13.1-2.9,13.05-3.58C40.51,57.08,38.89,56.92,36.58,56.7Z"/><path class="cls-2" d="M44.05,32.22c4.26-2.33,8.84-2.21,9-4.1a2.37,2.37,0,0,0-.77-1.85,2.77,2.77,0,0,0-1.92-.55,12,12,0,0,0-6.13,1.84,16.78,16.78,0,0,0-2.88,2.57,23,23,0,0,0-3,4.09,26.19,26.19,0,0,0-1.69,3.34q-.39.9-.69,1.62a5.11,5.11,0,0,1,.68.41A21.1,21.1,0,0,1,44.05,32.22Z"/><path class="cls-2" d="M94.66,43.1a2.16,2.16,0,0,0-.36,1.54,1.87,1.87,0,0,0,1,1.26c1.39.59,3.07-2.64,6.34-4.71,4.39-2.77,9.43-2,9.39-2.51,0-.24-1.19-.36-2.84-.53a23.78,23.78,0,0,0-3-.12,18.69,18.69,0,0,0-4,.51,13.3,13.3,0,0,0-2.9,1A9.57,9.57,0,0,0,94.66,43.1Z"/><path class="cls-2" d="M54.36,41.69c.33.57,5.4-4.07,12.42-4.29,5.23-.16,9.56,2.19,10.68.47a2.56,2.56,0,0,0,.15-2.15A2.93,2.93,0,0,0,76,34.26,12.88,12.88,0,0,0,69.27,33a17.35,17.35,0,0,0-4,1.07,24.45,24.45,0,0,0-4.87,2.46A30.51,30.51,0,0,0,57.14,39C55.42,40.39,54.2,41.41,54.36,41.69Z"/><path class="cls-2" d="M121.81,58.46A2.39,2.39,0,0,0,123,56.82a2.76,2.76,0,0,0-.54-1.92,12.13,12.13,0,0,0-4.79-4.24,16.44,16.44,0,0,0-3.7-1.09,23.57,23.57,0,0,0-5.06-.41,29.21,29.21,0,0,0-3.72.32c-2.07.31-3.53.53-3.54.84,0,.61,6.27-.62,11.94,2.6C117.79,55.32,120.09,59.28,121.81,58.46Z"/><path class="cls-2" d="M77.35,23.67c0,.6,6.13-.27,11.48,3.16,4,2.56,6,6.53,7.72,5.82a2.35,2.35,0,0,0,1.22-1.53,2.65,2.65,0,0,0-.43-1.89,11.64,11.64,0,0,0-4.43-4.38,15.62,15.62,0,0,0-3.54-1.26,22.16,22.16,0,0,0-4.9-.66,26.42,26.42,0,0,0-3.64.12C78.81,23.24,77.38,23.38,77.35,23.67Z"/><path class="cls-2" d="M27.45,45.34c2.54-4,6.92-5.23,6.71-5.64-.11-.2-1.1.12-2.51.57a21,21,0,0,0-2.47,1,15.43,15.43,0,0,0-3.06,1.91,11.37,11.37,0,0,0-2,1.94,9,9,0,0,0-1.64,4.44A2.25,2.25,0,0,0,22.78,51a1.74,1.74,0,0,0,1.27.73C25.41,51.78,25.57,48.33,27.45,45.34Z"/><path class="cls-2" d="M67.38,24.27c.23-.19-.48-1.41-1.48-3.13a27.81,27.81,0,0,0-1.81-2.74,3,3,0,0,1-.66-.7,3.57,3.57,0,0,1-.26-.46,20.42,20.42,0,0,0-2.56-2.58,15.25,15.25,0,0,0-3-2.11,11.6,11.6,0,0,0-6-1,2.6,2.6,0,0,0-1.75.73,2.26,2.26,0,0,0-.53,1.84c.41,1.77,4.73,1.13,9,2.84C64.12,19.24,66.94,24.64,67.38,24.27Z"/><path class="cls-2" d="M74.3,12.88c3.35,1.24,5.5,3.85,6.64,3a1.78,1.78,0,0,0,.66-1.33A2,2,0,0,0,81,13.27a8.94,8.94,0,0,0-4-2.52,11.61,11.61,0,0,0-2.82-.35,16.55,16.55,0,0,0-3.72.3,21.92,21.92,0,0,0-2.67.67c-1.47.47-2.5.81-2.47,1C65.37,12.84,69.79,11.21,74.3,12.88Z"/><path class="cls-3" d="M152.94,94.59c-2-1.45-5.83-2.57-8.26-1.73A2.9,2.9,0,0,0,143.11,94c-.57,1.14,1.34,1.89,3.23,4.17s1.39,3.29,2.82,3.61a6.53,6.53,0,0,0,5.43-1.88C156.21,98.05,154.65,95.81,152.94,94.59Zm1.13,4.47a.88.88,0,0,1-.48.61,2,2,0,0,1-1.1.16c-1-.18-.5-1.73-1.37-3.32-1.17-2.13-4.23-3.26-4-3.41a5.6,5.6,0,0,1,1.78.6,16.61,16.61,0,0,1,1.67.77,12.09,12.09,0,0,1,2,1.26,6.43,6.43,0,0,1,1.14,1.14A2.77,2.77,0,0,1,154.07,99.06Z"/><path class="cls-2" d="M152.52,95.73a12.09,12.09,0,0,0-2-1.26,16.61,16.61,0,0,0-1.67-.77,5.6,5.6,0,0,0-1.78-.6c-.23.15,2.83,1.28,4,3.41.87,1.59.36,3.14,1.37,3.32a2,2,0,0,0,1.1-.16.88.88,0,0,0,.48-.61,2.77,2.77,0,0,0-.41-2.19A6.43,6.43,0,0,0,152.52,95.73Z"/><path class="cls-3" d="M157.2,87.11c-1.88-.45-4.93-.15-6.41,1.18a2.2,2.2,0,0,0-.8,1.28c-.06,1,1.53,1,3.56,2.06s2,2,3.09,1.78a5,5,0,0,0,3.33-3C160.58,88.65,158.8,87.48,157.2,87.11Zm2,3.48a1.56,1.56,0,0,1-.74.44c-.78.17-.88-1.1-2-2-1.47-1.2-4-1.1-3.88-1.28a4.29,4.29,0,0,1,1.45-.1,12.43,12.43,0,0,1,1.42.07,8.73,8.73,0,0,1,1.78.34,5,5,0,0,1,1.15.48,2.18,2.18,0,0,1,.95,1.46A.69.69,0,0,1,159.19,90.59Z"/><path class="cls-2" d="M158.4,88.54a5,5,0,0,0-1.15-.48,8.73,8.73,0,0,0-1.78-.34,12.43,12.43,0,0,0-1.42-.07,4.29,4.29,0,0,0-1.45.1c-.12.18,2.41.08,3.88,1.28,1.09.9,1.19,2.17,2,2a1.56,1.56,0,0,0,.74-.44.69.69,0,0,0,.16-.59A2.18,2.18,0,0,0,158.4,88.54Z"/><path class="cls-3" d="M160.9,83.09c-1.24-.84-3.79-1-5.37-.75-1.34.24-2.83,1-2.32,2.11A4,4,0,0,0,156,86.31c.93.13.9-.43,2.59-1.12s3-.67,3-1.3C161.54,83.51,161,83.16,160.9,83.09Zm-4.76.47c-.92.56-1,1.36-1.66,1.25a1.34,1.34,0,0,1-.61-.27.37.37,0,0,1-.14-.37,1.43,1.43,0,0,1,.8-.92,4.6,4.6,0,0,1,1-.31,9.28,9.28,0,0,1,1.49-.21c.13,0,.57,0,1.19,0a5.86,5.86,0,0,1,1.21.06C159.49,82.86,157.37,82.8,156.14,83.56Z"/><path class="cls-2" d="M157,82.73a9.28,9.28,0,0,0-1.49.21,4.6,4.6,0,0,0-1,.31,1.43,1.43,0,0,0-.8.92.37.37,0,0,0,.14.37,1.34,1.34,0,0,0,.61.27c.66.11.74-.69,1.66-1.25,1.23-.76,3.35-.7,3.24-.82a5.86,5.86,0,0,0-1.21-.06C157.55,82.68,157.11,82.72,157,82.73Z"/></svg>