<svg id="Layer_1" data-name="Layer 1" xmlns="http://www.w3.org/2000/svg" width="659.05" height="905.82" viewBox="0 0 659.05 905.82"><defs><style>.cls-1{fill:#ede895;}.cls-2{fill:#563f22;}.cls-3{fill:#b29783;}.cls-4{fill:#997e6b;}.cls-5{fill:#dd8576;}.cls-6{fill:#fae7e5;}.cls-7{fill:#fef8f9;}</style></defs><path class="cls-1" d="M354.39,224.12a69.33,69.33,0,0,1,13.48,14,66.61,66.61,0,0,1,9.76-3.29,62.22,62.22,0,0,1,14.52-3.4,59.65,59.65,0,0,1,15.22-.06c5.11-6.08,23.31-18.61,45-16.69.9.07,2,.17,3.22.3-7.77-18-23-32.87-42.31-41.65a34,34,0,0,1,3.07,2.1c2.18,1.67,11.86,8.71,8.23,14.46-2,3.2-8,5.75-11.93,4.83-6.33-1.46-6.17-11.4-7.25-11.36-1.61.07,2.15,22.11-4.51,23.36-6.33,1.18-18.25-17.18-26.82-15.55-1.67.32-1.59,1.08-4.15,2.62-7.14,4.3-19.78,5.63-22.76,3.16-4.16-3.46,12-13.16,7.81-16.89-4.47-4-27.57,2.6-29.31,0-.48-.73.61-2.27,1.86-3.14,1.59-1.1,4-1.51,4.09-2.62a.84.84,0,0,0-.06-.32c0-.15.13-.38.48-.66a89.32,89.32,0,0,0-22.82,14.8,50.19,50.19,0,0,1,9.93,20.78C339.74,212,354,221.69,354.39,224.12Z"/><path class="cls-1" d="M374.16,164.82c1.52,0,3.57.05,6,.16-2.47-.18-5-.28-7.5-.28a101.52,101.52,0,0,0-12.29.75A108.5,108.5,0,0,1,374.16,164.82Z"/><path class="cls-2" d="M236.05,219.18a1.65,1.65,0,0,0,.1.4c.56,1.31,2.93,1,4.86,1.78a7.28,7.28,0,0,1,2,1.24A65.81,65.81,0,0,1,254.29,228q2.27-2.12,4.73-4a46.7,46.7,0,0,1,17.54-11.51c9.57-5.64,22.22-5,30.05-4.52h.16c1.05,0,2.09,0,3.12.08l1,0c2.87.15,5.65.43,8.32.84a50.19,50.19,0,0,0-9.93-20.78,57.15,57.15,0,0,0-9.16-9.17c2.73,3,5.4,7.13,3.36,10.77-1.78,3.2-7,5.76-10.55,4.85-5.59-1.45-5.43-11.39-6.38-11.34-1.43.07,1.84,22.11-4,23.37-5.6,1.19-16.09-17.15-23.67-15.5-1.48.32-1.41,1.08-3.68,2.63-6.32,4.32-17.49,5.67-20.11,3.2-3.68-3.45,10.65-13.18,6.93-16.9-3.95-3.94-24.37,2.66-25.9,0a1.28,1.28,0,0,1,.06-1.12c-12.4,9.89-20.18,24.11-20.18,39.91,0,.94,0,1.87.08,2.79C216.87,213.88,235.74,217.31,236.05,219.18Z"/><path class="cls-3" d="M457,328.48a52.64,52.64,0,0,1-8.49.89l-.12,5.54Z"/><path class="cls-3" d="M368.37,355.16l20.26-14.54a69.15,69.15,0,0,1-19.83-4.8Z"/><path class="cls-3" d="M368.33,356.91l-.86,38.47,23.84-17.8q.36-18.36.73-36.73l-1.22-.07Z"/><path class="cls-3" d="M420.54,355.75l26.86-20.07.08-6.28h-.42a54.54,54.54,0,0,1-11.79-1.29A64.07,64.07,0,0,1,421,336Z"/><path class="cls-3" d="M331.41,345.16v36.51l34.85-25,.42-21.77a63.45,63.45,0,0,1-12.05-7.08Z"/><path class="cls-3" d="M265.9,340.81l-.09,52.56,32.73-24.44V340.51a78.13,78.13,0,0,1-23.64-6.15Z"/><path class="cls-3" d="M214,326.52c-.05,2.54-.11,5.09-.16,7.63l10.68-7.66c-1.79.14-3.6.22-5.44.22S215.64,326.63,214,326.52Z"/><path class="cls-3" d="M251.9,318.52a66.26,66.26,0,0,1-14.16,5.7q-.44,18.31-.86,36.64L264.61,341V328.84A71.16,71.16,0,0,1,251.9,318.52Z"/><path class="cls-3" d="M265.9,340l8.34-6a74.71,74.71,0,0,1-8.32-4.37Q265.92,334.86,265.9,340Z"/><path class="cls-3" d="M265.8,394.16l-.06,34.61,32.8-23.52V369.71Z"/><path class="cls-3" d="M391.59,417.79l26.78-19.13q.44-20.67.86-41.35l-26.74,20Z"/><path class="cls-3" d="M366,461l24-17.84q.24-11.58.46-23.15L366.53,437.2Z"/><path class="cls-3" d="M448.42,335.47l-.63,28.24-.73,1.6,24.25-41.58A54.58,54.58,0,0,1,458,328.32Z"/><path class="cls-3" d="M331.41,520.45l32.18-23.66q.32-16.92.64-33.83l-32.82,24.51Z"/><path class="cls-3" d="M329.45,383.08V346.62l-29.22,21.83V404Z"/><path class="cls-3" d="M300.23,484.76V509.9l29.22-21.72V463.8Z"/><path class="cls-3" d="M329.45,384.8l-29.22,21V445.6l29.22-21.82Z"/><path class="cls-3" d="M300.23,340.65v27l29.22-21.83v-8.25a79.63,79.63,0,0,1-22.84,3.33C304.46,340.92,302.33,340.82,300.23,340.65Z"/><path class="cls-3" d="M329.45,424.48l-29.22,21.87v36.72l29.22-20.88Z"/><path class="cls-3" d="M331.41,337v7.38l22.7-16.95c-.54-.41-1.06-.83-1.59-1.26A74.87,74.87,0,0,1,331.41,337Z"/><path class="cls-3" d="M212.09,335.81l-11,7.85-.2-.28,11.17-8,.33-9a67.92,67.92,0,0,1-25.87-7.67l26.6,45.63q-1-2.16-2-4.32Q211.65,347.92,212.09,335.81Z"/><path class="cls-3" d="M390.49,418.58q.4-20.19.8-40.37l-23.84,17.84-.89,39.62Z"/><path class="cls-3" d="M331.41,423v37.78L364.73,437l.75-39.47Z"/><path class="cls-3" d="M364.25,462.32l.45-23.81-33.29,23.88v24.33Z"/><path class="cls-3" d="M366,461.66l-.76,33.92L375.51,488c-.22.36-.43.72-.64,1.09l14.72-25.25q.21-10.07.4-20.14Z"/><path class="cls-3" d="M391,443l-.42,18.79-1,2.12,21-36-.81,1.06Z"/><path class="cls-3" d="M420.52,356.34l-.92,41.44,14.62-10.44c-.43.73-.86,1.46-1.28,2.19l14.12-24.22.34-29.07Z"/><path class="cls-3" d="M365.5,396.86q.36-19.23.73-38.44l-34.82,25v38.92Z"/><polygon class="cls-3" points="419.26 412.99 432.9 389.59 419.57 399.16 419.26 412.99"/><path class="cls-3" d="M391.56,419.25,391,442.41l19.53-14.51L418,415.1l.31-15.07Z"/><path class="cls-3" d="M264.61,341.74l-27.75,19.91-1,41.66c-.29-.79-.58-1.58-.86-2.36l.86-38.6-16.75,12-.37-.52,17.14-12.29.83-37.08a70.77,70.77,0,0,1-11.6,2l-11.34,8.14-.63,29.77L240.92,412l23.69-17.69Z"/><path class="cls-3" d="M298.54,510.77V486l-9.8,7-.81-1.14,10.61-7.58V447.61q-12.65,9.47-25.3,18.92l-.37-.5,25.67-19.17V407l-32.8,23.53q0,12-.05,23.94l-1.08-1.86V431.31l-8.37,6-.82-1.14,9.19-6.6V395.05L241.3,412.46l-.38-.5L298.7,511l.37-.27Z"/><path class="cls-3" d="M393.31,340.88l-.8,35.8,26.73-20,.42-20.17a69.74,69.74,0,0,1-24.5,4.38C394.54,340.92,393.92,340.9,393.31,340.88Z"/><path class="cls-3" d="M365,506.05c-.54.94-1.09,1.87-1.63,2.8l.21-10.93-32.16,24v41.65c-.7,1-1.09,1.51-1.09,1.51l-.87-1.51V523.4l-16.06,12-.81-1.09,16.87-12.4v-33l-29.22,21.83h0l-1.12.83-.39-.52,31.67,54.31,44.1-75.63-9.29,6.94Z"/><path class="cls-4" d="M448.42,335.47l9.56-7.15-.94.16-8.61,6.43.12-5.54c-.35,0-.71,0-1.07,0l-.08,6.28-26.86,20.07L421,336c-.44.17-.87.35-1.32.51l-.42,20.17-26.73,20,.8-35.8c-.43,0-.85,0-1.27,0q-.37,18.36-.73,36.73l-23.84,17.8.86-38.47,22.49-16.13c-.73,0-1.46-.09-2.19-.16l-20.26,14.54.43-19.34c-.72-.3-1.42-.61-2.12-.92l-.42,21.77-34.85,25V345.16l23.22-17.34-.52-.4-22.7,16.95V337c-.65.21-1.3.41-2,.6v8.25l-29.22,21.83v-27c-.57,0-1.13-.08-1.69-.14v28.42l-32.73,24.44.09-52.56,9-6.45-.66-.31-8.34,6q0-5.19,0-10.36c-.44-.27-.87-.56-1.31-.84V341l-27.73,19.9q.42-18.33.86-36.64l-1,.26-.83,37.08-17.14,12.29.37.52,16.75-12L235,401c.28.78.57,1.57.86,2.36l1-41.66,27.75-19.91v52.53L240.92,412h0l.38.5,23.31-17.41v34.53l-9.19,6.6.82,1.14,8.37-6v21.27l1.08,1.86q0-12,.05-23.94L298.54,407v39.89L272.87,466l.37.5q12.66-9.45,25.3-18.92v36.67l-10.61,7.58.81,1.14,9.8-7v24.8h.53l-.37.27h0l0,0,.39.52,1.12-.83h0l29.22-21.83v33l-16.87,12.4.81,1.09,16.06-12v40.19l.87,1.51s.39-.53,1.09-1.51V521.94l32.16-24-.21,10.93c.54-.93,1.09-1.86,1.63-2.8l.21-9.35,9.29-6.94h0c.13-.22.26-.43.38-.65.21-.37.42-.73.64-1.09l-10.29,7.56.76-33.92,24-17.94q-.19,10.08-.4,20.14h0l1-2.12L391,443l18.73-14,.81-1.06h0L391,442.41l.52-23.16L418.34,400,418,415.1h0c.41-.67.82-1.33,1.22-2V413l.31-13.83,13.33-9.57h0l0-.06c.42-.73.85-1.46,1.28-2.19L419.6,397.78l.92-41.44,26.88-20.1-.34,29.07h0l.73-1.6Zm-57.13,42.74q-.39,20.19-.8,40.37l-23.93,17.09.89-39.62Zm-59.88,82.58V423l34.07-25.49L364.73,437Zm33.29-22.28-.45,23.81-32.84,24.4V462.39Zm1.53-80.09q-.37,19.21-.73,38.44l-34.09,25.45V383.39Zm-36.78-11.8v36.46l-29.22,21V368.45Zm-63.71,82.15.06-34.61,32.74-24.45v35.54Zm34.49-23,29.22-21v39L300.23,445.6Zm0,40.59,29.22-21.87v37.71l-29.22,20.88Zm0,63.55V484.76l29.22-21v24.38Zm63.36-13.11-32.18,23.66v-33L364.23,463Q363.92,479.88,363.59,496.79ZM390,443.18,366,461l.53-23.82L390.46,420Q390.24,431.61,390,443.18Zm28.37-44.52-26.78,19.13.9-40.48,26.74-20Q418.79,378,418.37,398.66Z"/><path class="cls-4" d="M225.13,326.45l-.65,0-10.68,7.66c0-2.54.11-5.09.16-7.63l-1.53-.12-.33,9-11.17,8,.2.28,11-7.85q-.45,12.1-.89,24.23,1,2.16,2,4.32h0l.63-29.77Z"/><path class="cls-1" d="M214,326.52c1.68.11,3.37.19,5.08.19s3.65-.08,5.44-.22l.65,0a70.77,70.77,0,0,0,11.6-2l1-.26a66.26,66.26,0,0,0,14.16-5.7c-11.45-11.73-18.41-27.17-18.41-44.09,0-18.08,7.93-34.45,20.8-46.44A65.81,65.81,0,0,0,243,222.6a2.75,2.75,0,0,1,1.16,1.91c-.3,3.76-23.88,3.61-26,9.87-2,5.91,16.93,12.15,14.86,17.71-1.48,4-13.32,6.62-21.68,3.83a23.37,23.37,0,0,1-3.45-1.55c-.58.9-3.79,2.22-7.4,5.74-3.93,8-6.18,21.27-10.56,21.77-6.49.73-13.52-27.07-15-26.61-1,.31,3.83,12.22-1.1,16.1-3.09,2.44-9.57,1.36-12.86-1.81-2.23-2.15-2.87-5.17-2.73-8.23a47.66,47.66,0,0,0-1.36,11.25c0,19.52,11.88,36.63,29.68,46.15a67.92,67.92,0,0,0,25.87,7.67Z"/><path class="cls-5" d="M309.89,208l1,0Z"/><path class="cls-5" d="M306.63,207.93h0Z"/><path class="cls-5" d="M333,286.78c0-21.37,14.22-39.84,34.87-48.64a69.33,69.33,0,0,0-13.48-14,.46.46,0,0,1,0,.2,1.91,1.91,0,0,0-.06.52c0,1.83,2.78,2.59,4.56,4.45,1.4,1.47,2.59,4.06,2,5.25-2,4.31-27.95-7.2-33.07-.79-4.84,6.05,13.24,22.57,8.47,28.17-3.4,4-17.64,1.45-25.61-5.87-2.86-2.63-2.76-3.89-4.63-4.46-9.65-3-23.46,27.11-30.58,25-7.48-2.26-2.82-38.64-4.63-38.79-1.22-.11-1.24,16.35-8.41,18.58-4.49,1.41-11.16-3-13.37-8.33-4-9.62,7.09-21,9.58-23.7.11-.13.23-.24.34-.36q-2.46,1.92-4.73,4c-12.87,12-20.8,28.36-20.8,46.44,0,16.92,7,32.36,18.41,44.09a71.16,71.16,0,0,0,12.71,10.32c.44.28.87.57,1.31.84a74.71,74.71,0,0,0,8.32,4.37l.66.31a78.13,78.13,0,0,0,23.64,6.15c.56.06,1.12.1,1.69.14,2.1.17,4.23.27,6.38.27a79.63,79.63,0,0,0,22.84-3.33c.66-.19,1.31-.39,2-.6a74.87,74.87,0,0,0,21.11-10.83C340.51,316.29,333,302.31,333,286.78Z"/><path class="cls-2" d="M378.55,266.94c-4.48-.51-4.11-18.42-5.17-18.35-.71,0,.33,8-3.68,9.61-2.52,1-6.66-.58-8.28-3-2.93-4.33,2.76-10.67,4-12.17a29.85,29.85,0,0,1,12.18-8.19,66.61,66.61,0,0,0-9.76,3.29c-20.65,8.8-34.87,27.27-34.87,48.64,0,15.53,7.51,29.51,19.52,39.38.53.43,1.05.85,1.59,1.26l.52.4a63.45,63.45,0,0,0,12.05,7.08c.7.31,1.4.62,2.12.92a69.15,69.15,0,0,0,19.83,4.8c.73.07,1.46.11,2.19.16l1.22.07c.42,0,.84,0,1.27,0,.61,0,1.23,0,1.85,0a69.74,69.74,0,0,0,24.5-4.38c.45-.16.88-.34,1.32-.51a64.07,64.07,0,0,0,14.29-7.91,54.57,54.57,0,0,1-38.53-74.37c-1-.69-1.17-1.1-2.06-1.21C388.9,251.86,382.82,267.43,378.55,266.94Z"/><path class="cls-5" d="M500.71,276.18c-2.72,7.39-9.45,13.07-13.45,10.71-6.37-3.75-4.34-27.07-5.48-27-1.7.08-1.91,52-9.14,54.57-6.87,2.46-15.94-41.25-25.26-37.86-1.8.65-1.87,2.45-4.85,5.93-8.32,9.72-21.84,12.19-24.51,6.24-3.72-8.33,15.11-30.25,11.38-39.22-2.34-5.64-12.28-2.93-20.25-1.12,2.39,2.58,5,5.17,3.73,6.79-1.72,2.19-10.13,2.05-15.23-.86-.38-.22-.67-.42-.91-.59a54.57,54.57,0,0,0,50.32,75.66h.42c.36,0,.72,0,1.07,0a52.64,52.64,0,0,0,8.49-.89l.94-.16a54.6,54.6,0,0,0,43.64-53.47c0-.58,0-1.16,0-1.74A21.89,21.89,0,0,1,500.71,276.18Z"/><path class="cls-6" d="M249.1,248c2.21,5.34,8.88,9.74,13.37,8.33,7.17-2.23,7.19-18.69,8.41-18.58,1.81.15-2.85,36.53,4.63,38.79,7.12,2.14,20.93-27.92,30.58-25,1.87.57,1.77,1.83,4.63,4.46,8,7.32,22.21,9.88,25.61,5.87,4.77-5.6-13.31-22.12-8.47-28.17,5.12-6.41,31.06,5.1,33.07.79.56-1.19-.63-3.78-2-5.25-1.78-1.86-4.54-2.62-4.56-4.45a1.91,1.91,0,0,1,.06-.52.46.46,0,0,0,0-.2c-.4-2.43-14.65-12.14-35.21-15.23-2.67-.41-5.45-.69-8.32-.84l-1,0c-1,0-2.07-.07-3.12-.08h-.14c9.18.57,13.77.86,15.07,3.58,3,6.19-9.45,23.06-25,24.7-13.52,1.43-28.39-8.76-27.78-15.61.07-.78.38-2,2.59-4.23a24.48,24.48,0,0,1,5.05-3.92A46.7,46.7,0,0,0,259,224c-.11.12-.23.23-.34.36C256.19,227,245.13,238.4,249.1,248Z"/><path class="cls-6" d="M161,269.56c3.29,3.17,9.77,4.25,12.86,1.81,4.93-3.88.12-15.79,1.1-16.1,1.46-.46,8.49,27.34,15,26.61,4.38-.5,6.63-13.76,10.56-21.77-.5.49-1,1-1.51,1.58-6.1,6.92-5.34,12.57-8,12.73-3.12.2-8.94-7.53-6.54-13.52,3.47-8.67,22.38-9,23.46-7a.43.43,0,0,1,0,.46,23.37,23.37,0,0,0,3.45,1.55c8.36,2.79,20.2.15,21.68-3.83,2.07-5.56-16.85-11.8-14.86-17.71,2.11-6.26,25.69-6.11,26-9.87A2.75,2.75,0,0,0,243,222.6a7.28,7.28,0,0,0-2-1.24c-1.93-.79-4.3-.47-4.86-1.78a1.65,1.65,0,0,1-.1-.4c-.31-1.87-19.18-5.3-40,2.45-.68.25-1.36.52-2,.8-6.71,2.71-25.43,10.1-32.48,27-.71,1.7-3,6.89-3.24,11.94C158.1,264.39,158.74,267.41,161,269.56Z"/><path class="cls-6" d="M216.05,180.05c1.53,2.63,21.95-4,25.9,0,3.72,3.72-10.61,13.45-6.93,16.9,2.62,2.47,13.79,1.12,20.11-3.2,2.27-1.55,2.2-2.31,3.68-2.63,7.58-1.65,18.07,16.69,23.67,15.5,5.88-1.26,2.61-23.3,4-23.37,1-.05.79,9.89,6.38,11.34,3.51.91,8.77-1.65,10.55-4.85,2-3.64-.63-7.79-3.36-10.77a45.91,45.91,0,0,0-3.88-3.68c-6-5.24-13.91-7.85-21-9.16,6.39,1.34,9.65,2.17,10.42,4.24,1.89,5.1-9.77,16.48-22.68,15.84-11.23-.57-22.56-10.18-21.46-15.36.12-.58.48-1.47,2.49-2.91a19.81,19.81,0,0,1,6-2.87c-17.09,1.5-29,7.66-28.66,8.92a.86.86,0,0,1,.05.32c0,1.11-2.21,1.53-3.62,2.63a5.3,5.3,0,0,0-1.58,2A1.28,1.28,0,0,0,216.05,180.05Z"/><path class="cls-6" d="M407.37,231.39a59.65,59.65,0,0,0-15.22.06,62.22,62.22,0,0,0-14.52,3.4A29.85,29.85,0,0,0,365.45,243c-1.27,1.5-7,7.84-4,12.17,1.62,2.41,5.76,4,8.28,3,4-1.63,3-9.57,3.68-9.61,1.06-.07.69,17.84,5.17,18.35,4.27.49,10.35-15.08,16.13-14.4.89.11,1.1.52,2.06,1.21.24.17.53.37.91.59,5.1,2.91,13.51,3,15.23.86,1.27-1.62-1.34-4.21-3.73-6.79,8-1.81,17.91-4.52,20.25,1.12,3.73,9-15.1,30.89-11.38,39.22,2.67,5.95,16.19,3.48,24.51-6.24,3-3.48,3.05-5.28,4.85-5.93,9.32-3.39,18.39,40.32,25.26,37.86,7.23-2.57,7.44-54.49,9.14-54.57,1.14-.05-.89,23.27,5.48,27,4,2.36,10.73-3.32,13.45-10.71a21.89,21.89,0,0,0,.87-3.07c2.72-12.73-5-27.56-6.8-31.29-10.76-22-29.48-25.76-39.15-26.82-1.23-.13-2.32-.23-3.22-.3C430.68,212.78,412.48,225.31,407.37,231.39Zm60.27,64.5c-1.4.07-1.14-4.86-5.64-11.81-5.66-8.76-12.27-10.52-11.55-13.05.86-3,11.54-5.11,17.43-.24C476.42,277.85,470.28,295.76,467.64,295.89Z"/><path class="cls-6" d="M331.59,174a.84.84,0,0,1,.06.32c0,1.11-2.5,1.52-4.09,2.62-1.25.87-2.34,2.41-1.86,3.14,1.74,2.63,24.84-3.92,29.31,0,4.22,3.73-12,13.43-7.81,16.89,3,2.47,15.62,1.14,22.76-3.16,2.56-1.54,2.48-2.3,4.15-2.62,8.57-1.63,20.49,16.73,26.82,15.55,6.66-1.25,2.9-23.29,4.51-23.36,1.08,0,.92,9.9,7.25,11.36,4,.92,9.92-1.63,11.93-4.83,3.63-5.75-6.05-12.79-8.23-14.46a34,34,0,0,0-3.07-2.1c-10.49-6.45-24.3-8-33.17-8.37-2.42-.11-4.47-.14-6-.16a108.5,108.5,0,0,0-13.8.63c-15.11,1.65-26,6-28.29,7.86C331.72,173.59,331.55,173.82,331.59,174Zm62.3,4.91c10.11,4.56,8.91,23.45,6.4,24.28-1.33.44-2.39-4.39-8.56-9.91-7.77-7-14.61-6.91-14.58-9.54C377.18,180.57,386.93,175.74,393.89,178.88Z"/><path class="cls-7" d="M467.88,270.79c-5.89-4.87-16.57-2.78-17.43.24-.72,2.53,5.89,4.29,11.55,13.05,4.5,6.95,4.24,11.88,5.64,11.81C470.28,295.76,476.42,277.85,467.88,270.79Z"/><path class="cls-7" d="M391.73,193.25c6.17,5.52,7.23,10.35,8.56,9.91,2.51-.83,3.71-19.72-6.4-24.28-7-3.14-16.71,1.69-16.74,4.83C377.12,186.34,384,186.29,391.73,193.25Z"/><path class="cls-7" d="M207.92,253.91c-1.08-2-20-1.68-23.46,7-2.4,6,3.42,13.72,6.54,13.52,2.62-.16,1.86-5.81,8-12.73.51-.58,1-1.09,1.51-1.58,3.61-3.52,6.82-4.84,7.4-5.74A.43.43,0,0,0,207.92,253.91Z"/><path class="cls-7" d="M271.51,216.37c-2.21,2.24-2.52,3.45-2.59,4.23-.61,6.85,14.26,17,27.78,15.61,15.55-1.64,28-18.51,25-24.7-1.3-2.72-5.89-3-15.07-3.58h0c-7.83-.49-20.48-1.12-30.05,4.52A24.48,24.48,0,0,0,271.51,216.37Z"/><path class="cls-7" d="M243.93,167.91c-2,1.44-2.37,2.33-2.49,2.91-1.1,5.18,10.23,14.79,21.46,15.36,12.91.64,24.57-10.74,22.68-15.84-.77-2.07-4-2.9-10.42-4.24l-1.67-.35c-6-1.25-15.51-3.11-23.57-.71A19.81,19.81,0,0,0,243.93,167.91Z"/></svg>