<svg id="Layer_1" data-name="Layer 1" xmlns="http://www.w3.org/2000/svg" width="110.41" height="106.34" viewBox="0 0 110.41 106.34"><defs><style>.cls-1{fill:#594633;}.cls-2{fill:#776250;}</style></defs><path class="cls-1" d="M50.08,57.25c6.88,1.65,9.67,4.34,12.51,2.66A5.69,5.69,0,0,0,65,56.56C66.25,52,61.7,46.42,57,44c-4-2.06-10.62-3.19-14.88.69-2.85,2.6-4.66,7.49-2.85,10.25C40.68,57.07,43.21,55.61,50.08,57.25Zm-7-11.06A2.64,2.64,0,0,1,44.55,45a11.44,11.44,0,0,1,6.05-.73,15.89,15.89,0,0,1,3.5,1.15,22.21,22.21,0,0,1,4.18,2.43A26.66,26.66,0,0,1,61,50.1c1.45,1.36,2.48,2.32,2.32,2.57-.32.49-4.57-3.88-10.77-4.44C48,47.82,44,49.68,43.11,48.1A2.29,2.29,0,0,1,43.08,46.19Z"/><path class="cls-2" d="M52.57,48.23c6.2.56,10.45,4.93,10.77,4.44.16-.25-.87-1.21-2.32-2.57a26.66,26.66,0,0,0-2.74-2.27A22.21,22.21,0,0,0,54.1,45.4a15.89,15.89,0,0,0-3.5-1.15,11.44,11.44,0,0,0-6.05.73,2.64,2.64,0,0,0-1.47,1.21,2.29,2.29,0,0,0,0,1.91C44,49.68,48,47.82,52.57,48.23Z"/><path class="cls-1" d="M71.33,87.93c.38-3.45-3.63-7.16-7.54-8.23a9.81,9.81,0,0,0-3.34-.32,7.78,7.78,0,0,0,.42-1.82A9.67,9.67,0,0,0,60.5,74a44.68,44.68,0,0,1,4,3.33c5.39,5.09,5.56,8.15,8.27,8.15,3.47,0,6.72-4.39,7.36-8.39,1-6-3.86-11.18-7.94-13.47-4.85-2.72-12.35-3.52-15.64.24a6,6,0,0,0-1.57,4,3.79,3.79,0,0,0,.56,1.85c-1.34.54-2.74,2.38-6.64,4.49-5.19,2.81-8.42,2.7-9.25,5.33A4.72,4.72,0,0,0,40,82.9c1.39,2.82,5.39,4,9.12,3.8-3,4.55-4.33,11.47-1.08,15a5.9,5.9,0,0,0,3.81,2c3.46.22,4.79-3.62,10.44-8.43S71,90.62,71.33,87.93ZM64.5,63.57a27.72,27.72,0,0,1,3.57,1.11A22.9,22.9,0,0,1,72.6,67a16.72,16.72,0,0,1,3,2.4,12.14,12.14,0,0,1,2.83,5.74,2.71,2.71,0,0,1-.22,2,2.41,2.41,0,0,1-1.69,1.08c-1.9.12-2.54-4.42-5.55-8.24-4-5.12-10.33-6.35-10.08-6.9C61,62.73,62.46,63.08,64.5,63.57ZM46.09,84.72c-1.66,0-2.83-.07-2.87-.31-.07-.48,5-.14,9.16-3.25,3.09-2.31,4.52-5.67,5.95-5.19a1.86,1.86,0,0,1,1.08,1.17,2.21,2.21,0,0,1-.23,1.57,9.71,9.71,0,0,1-3.35,3.83A13.32,13.32,0,0,1,53,83.77a18.78,18.78,0,0,1-3.95.83A25.12,25.12,0,0,1,46.09,84.72ZM55.71,88c-5.53,3.46-7.43,9.57-8,9.27-.27-.15.23-1.54.94-3.51a28.43,28.43,0,0,1,1.49-3.43,23.74,23.74,0,0,1,2.76-4.25L53,86a13.18,13.18,0,0,0,6.22-4.37,10.62,10.62,0,0,1,2.41-.44,2.77,2.77,0,0,1,1.95.44,2.34,2.34,0,0,1,.88,1.8C64.41,85.29,59.83,85.43,55.71,88Z"/><path class="cls-2" d="M64.5,83.39a2.34,2.34,0,0,0-.88-1.8,2.77,2.77,0,0,0-1.95-.44,10.62,10.62,0,0,0-2.41.44A13.18,13.18,0,0,1,53,86l-.1.13a23.74,23.74,0,0,0-2.76,4.25,28.43,28.43,0,0,0-1.49,3.43c-.71,2-1.21,3.36-.94,3.51.53.3,2.43-5.81,8-9.27C59.83,85.43,64.41,85.29,64.5,83.39Z"/><path class="cls-2" d="M53,83.77a13.32,13.32,0,0,0,2.82-1.23,9.71,9.71,0,0,0,3.35-3.83,2.21,2.21,0,0,0,.23-1.57A1.86,1.86,0,0,0,58.33,76c-1.43-.48-2.86,2.88-5.95,5.19-4.16,3.11-9.23,2.77-9.16,3.25,0,.24,1.21.27,2.87.31a25.12,25.12,0,0,0,3-.12A18.78,18.78,0,0,0,53,83.77Z"/><path class="cls-1" d="M71.61,92.51c-4.09.15-9.12,2.52-9.74,6.15a4.32,4.32,0,0,0,.55,3.12c1.43,2.12,4.26,1.17,9.61,2.3s6.62,3,8.33,2c2.18-1.32,2.54-5.33,1.41-8.1C80.08,93.81,75.06,92.38,71.61,92.51Zm8.33,7.5c-1.15.8-3.3-1.81-6.65-3.05-4.51-1.67-8.93,0-9-.48,0-.23,1-.56,2.47-1a21.92,21.92,0,0,1,2.67-.67,16.55,16.55,0,0,1,3.72-.3,11.74,11.74,0,0,1,2.83.35,9,9,0,0,1,4,2.52,2,2,0,0,1,.63,1.33A1.81,1.81,0,0,1,79.94,100Z"/><path class="cls-2" d="M76,94.83a11.74,11.74,0,0,0-2.83-.35,16.55,16.55,0,0,0-3.72.3,21.92,21.92,0,0,0-2.67.67c-1.47.47-2.5.8-2.47,1,.06.44,4.48-1.19,9,.48,3.35,1.24,5.5,3.85,6.65,3.05a1.81,1.81,0,0,0,.65-1.33A2,2,0,0,0,80,97.35,9,9,0,0,0,76,94.83Z"/><path class="cls-1" d="M90.42,83.81c-4.09-2.28-10.5-2.81-13.41.6A5.67,5.67,0,0,0,75.56,88c0,3.05,3.43,3.75,7.93,8.11s4.57,7.06,6.89,7c3-.08,5.86-4,6.52-7.59C97.87,90.2,93.87,85.73,90.42,83.81Zm4.85,11.77a2.19,2.19,0,0,1-1.48,1c-1.63.15-2.07-3.84-4.56-7.13-3.34-4.43-8.69-5.35-8.47-5.85.12-.25,1.34,0,3.06.4a22.75,22.75,0,0,1,3,.89,18.46,18.46,0,0,1,3.83,1.9,13.19,13.19,0,0,1,2.53,2,10,10,0,0,1,2.28,5A2.55,2.55,0,0,1,95.27,95.58Z"/><path class="cls-2" d="M93.22,88.83a13.19,13.19,0,0,0-2.53-2,18.46,18.46,0,0,0-3.83-1.9,22.75,22.75,0,0,0-3-.89c-1.72-.38-2.94-.65-3.06-.4-.22.5,5.13,1.42,8.47,5.85,2.49,3.29,2.93,7.28,4.56,7.13a2.19,2.19,0,0,0,1.48-1,2.55,2.55,0,0,0,.23-1.76A10,10,0,0,0,93.22,88.83Z"/><path class="cls-1" d="M19.17,90.45C12.59,89,11,86.52,8.91,87.89c-2.68,1.74-3.12,7-1.73,10.64,2.07,5.41,8.26,7.28,12.51,7.12,5-.2,11.23-3.31,12-8.07A6.07,6.07,0,0,0,31,93.47C29.25,90.69,25.76,91.94,19.17,90.45Zm6.48,11.33a24.19,24.19,0,0,1-3.28.89,19.92,19.92,0,0,1-4.59.4,14.42,14.42,0,0,1-3.48-.47,10.73,10.73,0,0,1-4.9-3.31,2.75,2.75,0,0,1-.77-1.75,2.4,2.4,0,0,1,.81-1.74c1.41-1,4.05,2.37,8.19,4,5.55,2.19,11,0,11.07.63C28.73,100.73,27.46,101.17,25.65,101.78Z"/><path class="cls-2" d="M17.63,99.81c-4.14-1.64-6.78-5.06-8.19-4a2.4,2.4,0,0,0-.81,1.74,2.75,2.75,0,0,0,.77,1.75,10.73,10.73,0,0,0,4.9,3.31,14.42,14.42,0,0,0,3.48.47,19.92,19.92,0,0,0,4.59-.4,24.19,24.19,0,0,0,3.28-.89c1.81-.61,3.08-1,3.05-1.34C28.62,99.85,23.18,102,17.63,99.81Z"/><path class="cls-2" d="M71,69.92c3,3.82,3.65,8.36,5.55,8.24a2.41,2.41,0,0,0,1.69-1.08,2.71,2.71,0,0,0,.22-2,12.14,12.14,0,0,0-2.83-5.74,16.72,16.72,0,0,0-3-2.4,22.9,22.9,0,0,0-4.53-2.28,27.72,27.72,0,0,0-3.57-1.11c-2-.49-3.47-.84-3.59-.55C60.66,63.57,66.94,64.8,71,69.92Z"/><path class="cls-1" d="M44.79,69c5.08.25,6.54,1.76,8,.55,1.8-1.54,1.53-5.28.08-7.65-2.17-3.54-7-4.1-10.15-3.46-3.74.75-8,3.68-8,7.1a4.09,4.09,0,0,0,1,2.79C37.24,70.05,39.71,68.75,44.79,69Zm-8.24-5.82c-.06-.2.84-.66,2.12-1.31a19.45,19.45,0,0,1,2.35-1A15.82,15.82,0,0,1,44.39,60,10.91,10.91,0,0,1,47,59.91a8.2,8.2,0,0,1,4,1.71,1.94,1.94,0,0,1,.77,1.13,1.67,1.67,0,0,1-.4,1.32c-.94.91-3.3-1.17-6.57-1.81C40.49,61.4,36.67,63.57,36.55,63.17Z"/><path class="cls-2" d="M51.45,64.07a1.67,1.67,0,0,0,.4-1.32,1.94,1.94,0,0,0-.77-1.13,8.2,8.2,0,0,0-4-1.71,10.91,10.91,0,0,0-2.65.09,15.82,15.82,0,0,0-3.37.84,19.45,19.45,0,0,0-2.35,1c-1.28.65-2.18,1.11-2.12,1.31.12.4,3.94-1.77,8.33-.91C48.15,62.9,50.51,65,51.45,64.07Z"/><path class="cls-1" d="M27,66.78c-4.56,0-11.12,2.17-13.13,7.71-1.34,3.71-.65,9,2.3,10.63,2.31,1.28,3.9-1.25,10.9-3s10.8-.68,12.57-3.56a5.75,5.75,0,0,0,.56-4.15C39.18,69.61,32.42,66.75,27,66.78Zm-2,6c-4.37,1.83-7.06,5.39-8.62,4.39a2.33,2.33,0,0,1-.94-1.71,2.74,2.74,0,0,1,.75-1.8,11.71,11.71,0,0,1,5.13-3.54,15.39,15.39,0,0,1,3.71-.62,22,22,0,0,1,4.93.2,26.21,26.21,0,0,1,3.57.74c2,.54,3.34.93,3.31,1.22C36.82,72.22,30.89,70.29,25,72.74Z"/><path class="cls-2" d="M33.56,70.4A26.21,26.21,0,0,0,30,69.66a22,22,0,0,0-4.93-.2,15.39,15.39,0,0,0-3.71.62,11.71,11.71,0,0,0-5.13,3.54,2.74,2.74,0,0,0-.75,1.8,2.33,2.33,0,0,0,.94,1.71c1.56,1,4.25-2.56,8.62-4.39,5.86-2.45,11.79-.52,11.84-1.12C36.9,71.33,35.52,70.94,33.56,70.4Z"/><path class="cls-1" d="M17,68.49c2.44.84,3.55-1.86,10-4.76s10.28-2.47,11.5-5.54a5.68,5.68,0,0,0-.16-4.1c-1.78-4.41-8.78-6-14-5.09C19.93,49.79,14,53,13,58.64,12.31,62.44,13.87,67.41,17,68.49Zm-2.3-9.22a2.57,2.57,0,0,1,.42-1.86,11.45,11.45,0,0,1,4.33-4.27,15.78,15.78,0,0,1,3.47-1.23,21.31,21.31,0,0,1,4.79-.63,26.16,26.16,0,0,1,3.55.11c2,.2,3.38.33,3.4.62,0,.58-6-.28-11.22,3.07-3.89,2.5-5.88,6.38-7.56,5.68A2.24,2.24,0,0,1,14.68,59.27Z"/><path class="cls-2" d="M23.42,55.08c5.24-3.35,11.27-2.49,11.22-3.07,0-.29-1.42-.42-3.4-.62a26.16,26.16,0,0,0-3.55-.11,21.31,21.31,0,0,0-4.79.63,15.78,15.78,0,0,0-3.47,1.23,11.45,11.45,0,0,0-4.33,4.27,2.57,2.57,0,0,0-.42,1.86,2.24,2.24,0,0,0,1.18,1.49C17.54,61.46,19.53,57.58,23.42,55.08Z"/><path class="cls-1" d="M34.5,82.09C31.43,82,27.67,83.56,27.12,86c-.42,1.88,1.82,2.45,4.75,6.94s3,7.38,5.51,8a4.83,4.83,0,0,0,3.22-.5c3.31-1.73,3.89-7.05,2.63-10.82C42.18,86.41,39.08,82.3,34.5,82.09Zm7.38,15.4c-.45.09-.37-4.45-3.54-8-2.35-2.65-5.61-3.76-5.23-5.06a1.75,1.75,0,0,1,1.07-1,2.26,2.26,0,0,1,1.5.14,9,9,0,0,1,3.8,2.81A11.41,11.41,0,0,1,40.8,88.8a15.77,15.77,0,0,1,1,3.48A17.64,17.64,0,0,1,42,94.92C42.08,96.4,42.11,97.45,41.88,97.49Z"/><path class="cls-2" d="M41.77,92.28a15.77,15.77,0,0,0-1-3.48,11.41,11.41,0,0,0-1.32-2.45,9,9,0,0,0-3.8-2.81,2.26,2.26,0,0,0-1.5-.14,1.75,1.75,0,0,0-1.07,1c-.38,1.3,2.88,2.41,5.23,5.06,3.17,3.56,3.09,8.1,3.54,8,.23,0,.2-1.09.15-2.57A17.64,17.64,0,0,0,41.77,92.28Z"/></svg>