<svg id="Layer_1" data-name="Layer 1" xmlns="http://www.w3.org/2000/svg" width="595.28" height="841.89" viewBox="0 0 595.28 841.89"><defs><style>.cls-1{fill:#e5cd67;}.cls-2{fill:#d3bf4c;}.cls-3{fill:#ead56c;}.cls-4{fill:#eee971;}.cls-5{fill:#333b45;}</style></defs><ellipse class="cls-1" cx="170.7" cy="462.86" rx="151.88" ry="156.97"/><path class="cls-1" d="M163.14,52.66C234,51.83,287,365,289,364.44S236.71,24.52,164.25,25.13C90.52,25.74,41.51,377.87,42.83,378.21S91,53.51,163.14,52.66Z"/><ellipse class="cls-2" cx="168.33" cy="463.08" rx="120.88" ry="133.49"/><path class="cls-3" d="M253.69,473.41c-1.59,10.72,3,11.93.64,20.73-3.1,11.76-11.73,11.42-16.83,24-3.56,8.75.07,10.3-2.59,25.25-2,11.46-4.47,25-12.31,27.85-10.22,3.66-21.17-14.07-30.44-9.71-6.89,3.23-5.86,15.4-11.65,16.19-3.48.47-4.52-3.83-9.81-6.76-12-6.66-24.67,5.47-32.29-.37-6-4.62-.66-14.19-6.47-18.78-8.39-6.61-25.5,8.59-31.74,3.24-7.16-6.15,12-29.15,3.24-43.39-7.09-11.48-24.22-4-33-16.84C63,484,65.89,465.31,75,455.93c6-6.25,10.35-3.75,15.54-10.36,8.11-10.34,1-20.87,8.42-27.85,7.08-6.71,17.11-.32,22-6.48,6.38-8-6.64-23.76-1.3-29.14s19.25,9.15,34.09,4c13.23-4.58,16.42-21,23.55-19.55,5.35,1.11,4.27,10.54,12.3,14.24,6.72,3.1,10.34-2.17,17.49.65,7.44,2.94,5.87,9.59,14.89,16.84,8.6,6.91,12.84,3.13,18.14,9.07,7.16,8,.62,16.34,7.77,25.9,6.2,8.3,13.95,5.82,16.19,12.31C266.72,453.31,256,457.79,253.69,473.41Z"/><path class="cls-4" d="M200.05,537.63H138.73v-12h23.58V446.88H138.73V436.15a69.23,69.23,0,0,0,10.27-.83,25.47,25.47,0,0,0,8.29-2.41,15.85,15.85,0,0,0,5.52-5,16.4,16.4,0,0,0,2.32-8.17h11.79V525.64h23.13Z"/><path class="cls-5" d="M211.8,543.82H141.48V530.06h27V439.74h-27V427.43a79.54,79.54,0,0,0,11.78-.95,29,29,0,0,0,9.5-2.76,18.09,18.09,0,0,0,6.33-5.75,18.77,18.77,0,0,0,2.66-9.37h13.52V530.06H211.8Z"/></svg>