<svg id="Layer_1" data-name="Layer 1" xmlns="http://www.w3.org/2000/svg" width="659.05" height="568.31" viewBox="0 0 659.05 568.31"><defs><style>.cls-1{fill:#6f7477;}.cls-2{fill:#b5b8ba;}.cls-3{fill:#7e8284;}.cls-4{fill:#666b70;}.cls-5{fill:#333b45;}</style></defs><path class="cls-1" d="M541.14,45.13a3.61,3.61,0,0,0-1.13-.87L524.67,130.5a6.63,6.63,0,0,1-6.22,5.37,192.36,192.36,0,0,0-26.27-3.09c-.68,0-7.38,0-15.38,0-8.58,0-10.78,0-14.2-.69-7.07-1.45-7.3-3.48-11.81-3.76-7.3-.45-8.27,4.76-16.91,6.75-7.69,1.76-8.51-2-24.05-2.27a117.64,117.64,0,0,0-14.55.71c-6.43.67-11.76,1.62-15.3,2.32a4.49,4.49,0,0,1-3.44-1.57,4.69,4.69,0,0,1-.87-3.8l13.91-78.27q-7.84,40.56-15.7,81.11a4.34,4.34,0,0,0,.85,3.67,4.65,4.65,0,0,0,3.5,1.52c3.62-.68,9-1.59,15.6-2.24,2.24-.22,7.75-.69,14.84-.69,14.75,0,17.58,2.05,33.45,2.34,3.08.05,7.46.12,13.27-.22,9.51-.56,12.78-1.63,21.5-2.15a145.62,145.62,0,0,1,15.63,0,205.92,205.92,0,0,1,26.74,3,6.72,6.72,0,0,0,6.37-5.19L542,48.8A4.31,4.31,0,0,0,541.14,45.13Z"/><path class="cls-2" d="M376.54,134.3a4.49,4.49,0,0,0,3.44,1.57c3.54-.7,8.87-1.65,15.3-2.32a117.64,117.64,0,0,1,14.55-.71c15.54.26,16.36,4,24.05,2.27,8.64-2,9.61-7.2,16.91-6.75,4.51.28,4.74,2.31,11.81,3.76,3.42.71,5.62.7,14.2.69,8,0,14.7-.06,15.38,0a192.36,192.36,0,0,1,26.27,3.09,6.63,6.63,0,0,0,6.22-5.37L540,44.26l.21-1.18a4.67,4.67,0,0,0-.87-3.79,4.73,4.73,0,0,0-3.44-1.57A128.63,128.63,0,0,0,500.39,39c-8.55,1.77-17.15,2-34.34,2.47-26.46.72-39.7,1.08-46.94-1.84,0,0-8.05-1.86-21.68-1.86a6.63,6.63,0,0,0-6.22,5.36l-1.63,9.15L375.67,130.5A4.69,4.69,0,0,0,376.54,134.3Zm2-5.23,15.06-85.4a6.41,6.41,0,0,1,6-5.24c13.09,0,20.84,1.82,20.84,1.82a116.17,116.17,0,0,0,34,6.09A123.85,123.85,0,0,0,467.55,46a131.33,131.33,0,0,0,31-6.39h0a122.32,122.32,0,0,1,34.14-1.2A4.5,4.5,0,0,1,536,40a4.63,4.63,0,0,1,.83,3.71l-15.06,85.4a6.42,6.42,0,0,1-6,5.25c-12.51-6.54-22.56-6.73-29.6-5.56-7.47,1.24-13,4.25-19.18,1.63-3.29-1.41-6-4.11-12.17-4.89a20.34,20.34,0,0,0-5.86,0c-5.22.8-7.87,3.34-11.29,4.89-5.68,2.59-7.17-.44-18.78-.65-4.22-.08-10,.72-21.53,2.31-6.14.85-11.22,1.68-14.71,2.27a4.44,4.44,0,0,1-3.31-1.54A4.68,4.68,0,0,1,378.52,129.07Z"/><path class="cls-3" d="M382.66,134.32c3.49-.59,8.57-1.42,14.71-2.27,11.54-1.59,17.31-2.39,21.53-2.31,11.61.21,13.1,3.24,18.78.65,3.42-1.55,6.07-4.09,11.29-4.89a20.34,20.34,0,0,1,5.86,0c6.19.78,8.88,3.48,12.17,4.89,6.14,2.62,11.71-.39,19.18-1.63,7-1.17,17.09-1,29.6,5.56a6.42,6.42,0,0,0,6-5.25l15.06-85.4A4.63,4.63,0,0,0,536,40a4.5,4.5,0,0,0-3.31-1.53,122.32,122.32,0,0,0-34.14,1.2h0a131.33,131.33,0,0,1-31,6.39,123.85,123.85,0,0,1-13.09.32,116.17,116.17,0,0,1-34-6.09s-7.75-1.82-20.84-1.82a6.41,6.41,0,0,0-6,5.24l-15.06,85.4a4.68,4.68,0,0,0,.83,3.71A4.44,4.44,0,0,0,382.66,134.32Zm6.21-10.72L402,49.06a5.61,5.61,0,0,1,5.23-4.58,87,87,0,0,1,18.19,1.6,101.59,101.59,0,0,0,29.71,5.31,104.45,104.45,0,0,0,11.43-.28,114.47,114.47,0,0,0,27.05-5.57h0a106.32,106.32,0,0,1,29.8-1.06,3.91,3.91,0,0,1,2.89,1.35,4,4,0,0,1,.72,3.23L513.89,123.6a5.59,5.59,0,0,1-5.22,4.58c-10.93-5.71-19.7-5.87-25.84-4.85-6.52,1.08-11.38,3.71-16.74,1.42-2.87-1.23-5.21-3.59-10.62-4.27a17.77,17.77,0,0,0-5.12,0c-4.55.69-6.86,2.91-9.85,4.27-5,2.25-6.26-.38-16.39-.57-3.68-.07-8.72.63-18.79,2-5.36.74-9.79,1.46-12.84,2a3.9,3.9,0,0,1-2.89-1.34A4.07,4.07,0,0,1,388.87,123.6Z"/><path class="cls-4" d="M392.48,128.18c3-.52,7.48-1.24,12.84-2,10.07-1.39,15.11-2.09,18.79-2,10.13.19,11.43,2.82,16.39.57,3-1.36,5.3-3.58,9.85-4.27a17.77,17.77,0,0,1,5.12,0c5.41.68,7.75,3,10.62,4.27,5.36,2.29,10.22-.34,16.74-1.42,6.14-1,14.91-.86,25.84,4.85a5.59,5.59,0,0,0,5.22-4.58L527,49.06a4,4,0,0,0-.72-3.23,3.91,3.91,0,0,0-2.89-1.35,106.32,106.32,0,0,0-29.8,1.06h0a114.47,114.47,0,0,1-27.05,5.57,104.45,104.45,0,0,1-11.43.28,101.59,101.59,0,0,1-29.71-5.31,87,87,0,0,0-18.19-1.6A5.61,5.61,0,0,0,402,49.06L388.87,123.6a4.07,4.07,0,0,0,.72,3.24A3.9,3.9,0,0,0,392.48,128.18Zm108.07-15.53c-.52.37-2.37.39-3.86.42-2,0-2.29-.15-4.56-.18-2.46,0-2.49.17-4.11.08-2.3-.13-2.54-.55-4.55-.71-1.83-.14-2.5.15-5.25.33-4.27.28-4.69-.29-8.88-.11-3.41.15-3.36.54-7,.77-3.91.24-8.87.11-9.05-.51s2.61-1.28,5.18-1.57,3,.11,6.73.11c4.05,0,4.11-.45,8.26-.44a64,64,0,0,0,6.41.07c2.57-.22,2.71-.56,4.6-.61,3-.09,3.14.72,6.45.87s4.48-.58,6.83-.22C499.8,111.27,501.18,112.2,500.55,112.65Zm3.38-9.59c-.52.37-2.37.4-3.86.42-2,0-2.29-.15-4.56-.18-2.45,0-2.49.17-4.11.08-2.3-.13-2.53-.55-4.55-.71-1.83-.14-2.5.15-5.25.33-4.27.28-4.69-.29-8.88-.11-3.41.15-3.35.54-7,.77-3.91.24-8.87.11-9.05-.51s2.61-1.28,5.19-1.57,3,.11,6.72.11c4.05,0,4.11-.45,8.26-.44,3.21,0,3.85.29,6.41.07s2.71-.56,4.6-.61c3-.09,3.14.72,6.45.87s4.48-.58,6.83-.22C503.18,101.68,504.56,102.62,503.93,103.06ZM502.8,93.3c-2.44.28-3-.1-6.72-.1-4.06,0-4.12.44-8.27.43a60.86,60.86,0,0,0-6.41-.06c-2.56.22-2.71.55-4.6.61-3,.09-3.14-.73-6.45-.88s-4.48.59-6.83.22c-2.08-.32-3.45-1.25-2.83-1.7s2.37-.39,3.86-.41c2,0,2.29.15,4.57.18,2.45,0,2.48-.17,4.1-.08,2.3.12,2.54.55,4.55.7,1.83.14,2.5-.15,5.25-.33,4.27-.27,4.69.3,8.88.11,3.41-.15,3.36-.53,7-.76,3.91-.25,8.87-.12,9.05.5S505.37,93,502.8,93.3Zm4.45-9.37c-2.61.37-3.31-.36-6.68-.21s-4.17,1-7.07.87c-1.85-.06-1.75-.39-4.16-.61a62,62,0,0,0-6.46.06c-4.16,0-3.9-.43-8-.43-3.73,0-4.55.38-6.79.11s-4.55-1.1-4.08-1.58,5.67-.75,9.4-.5c3.52.23,3.19.62,6.49.76,4.06.19,4.89-.38,9-.1,2.63.17,3.09.46,5,.32,2.11-.15,2.65-.58,5-.7,1.68-.09,1.57.11,4,.08,2.29,0,2.72-.21,4.69-.18,1.48,0,3.31.05,3.56.41S509.56,83.61,507.25,83.93ZM509,75.65c-2.43.27-3-.11-6.72-.11-4.05,0-4.11.45-8.26.44-3.21,0-3.85-.29-6.42-.07s-2.7.56-4.59.61c-3,.09-3.15-.72-6.45-.87s-4.48.58-6.84.22c-2.07-.33-3.45-1.26-2.82-1.7s2.37-.4,3.86-.42c2,0,2.29.15,4.56.18,2.45,0,2.49-.17,4.11-.08,2.3.13,2.53.55,4.54.71a36.09,36.09,0,0,0,5.26-.33c4.27-.28,4.69.29,8.88.11,3.41-.15,3.35-.54,7-.77,3.91-.24,8.87-.11,9,.51S511.59,75.36,509,75.65Zm4.08-8.29c-2.61.36-3.31-.37-6.69-.22s-4.16,1-7.06.87c-1.85-.05-1.76-.39-4.17-.61s-3.23.06-6.45.07c-4.16,0-3.91-.44-8-.44-3.73,0-4.56.38-6.8.11s-4.54-1.09-4.07-1.57,5.66-.75,9.4-.51c3.51.23,3.19.62,6.49.77,4.06.18,4.88-.39,9-.11,2.62.18,3.09.47,5,.33,2.12-.16,2.66-.58,5-.71,1.69-.09,1.58.12,4.05.08,2.3,0,2.73-.2,4.7-.18,1.47,0,3.3.05,3.56.42S515.4,67,513.1,67.36Zm-40.75-8.74c.61-.62,5.66-.74,9.4-.5,3.51.23,3.18.62,6.49.76,4.06.19,4.88-.38,9-.1,2.62.17,3.08.46,5,.32,2.12-.15,2.65-.58,5-.7,1.69-.09,1.58.11,4.05.08,2.29,0,2.73-.21,4.69-.18,1.48,0,3.31.05,3.57.41s-1.72,1.38-4,1.7c-2.61.37-3.31-.36-6.69-.21s-4.16,1-7.06.87c-1.85-.06-1.76-.39-4.17-.61a62,62,0,0,0-6.46.06c-4.15,0-3.9-.43-7.95-.43-3.73,0-4.56.38-6.8.11S471.88,59.1,472.35,58.62Zm-3-5.23h1.18L446.59,118.7h-1.17c5.44-24.46,9.94-36.11,13.34-42,.31-.54,1.51-2.6,3-5.52A124.23,124.23,0,0,0,469.32,53.39Zm-53.74,4.74c.52-.36,2.37-.39,3.86-.41,2,0,2.29.15,4.56.18,2.46,0,2.49-.17,4.11-.08,2.3.12,2.54.55,4.55.7,1.83.14,2.5-.15,5.25-.33,4.27-.27,4.69.3,8.88.11,3.41-.14,3.36-.53,7-.76,3.91-.25,8.87-.12,9.05.5s-2.61,1.29-5.18,1.58-3-.11-6.73-.11c-4,0-4.11.45-8.26.43a60.86,60.86,0,0,0-6.41-.06c-2.57.22-2.71.55-4.6.61-3,.09-3.14-.72-6.45-.87s-4.48.58-6.83.21C416.33,59.51,415,58.58,415.58,58.13Zm-2.45,6.95c.52-.37,2.37-.39,3.86-.42,2,0,2.29.15,4.57.18,2.45,0,2.48-.17,4.1-.08,2.3.13,2.54.55,4.55.71,1.83.14,2.5-.15,5.25-.33,4.27-.28,4.69.29,8.88.11,3.41-.15,3.36-.54,7-.77,3.91-.24,8.87-.11,9.05.51s-2.61,1.28-5.18,1.57-3-.11-6.72-.11c-4.06,0-4.12.45-8.27.44a64,64,0,0,0-6.41-.07c-2.56.22-2.71.56-4.6.61-3,.09-3.14-.72-6.45-.87s-4.48.58-6.83.22C413.88,66.46,412.51,65.52,413.13,65.08Zm-3,8.41c.61-.61,5.67-.74,9.4-.5,3.52.23,3.19.62,6.49.77,4.06.18,4.89-.39,9-.11,2.62.17,3.09.46,5,.32,2.12-.15,2.66-.57,5-.7,1.68-.09,1.57.11,4.05.08,2.29,0,2.72-.21,4.69-.18,1.47,0,3.3,0,3.56.42s-1.72,1.37-4,1.7c-2.61.36-3.31-.37-6.68-.22s-4.17,1-7.07.87c-1.85,0-1.75-.39-4.16-.61s-3.24.06-6.46.07c-4.16,0-3.91-.44-8-.44-3.73,0-4.55.38-6.79.11S409.64,74,410.11,73.49Zm-2.82,8.16c.52-.36,2.36-.39,3.85-.41,2,0,2.3.15,4.57.18,2.45,0,2.49-.17,4.11-.08,2.3.12,2.53.55,4.54.7,1.84.14,2.51-.15,5.26-.33,4.27-.27,4.69.3,8.88.11,3.41-.14,3.35-.53,7-.76,3.91-.25,8.87-.12,9,.5s-2.61,1.29-5.18,1.58-3-.11-6.72-.11c-4.05,0-4.11.45-8.26.43A61,61,0,0,0,428,83.4c-2.56.22-2.7.55-4.59.61-3,.09-3.15-.73-6.45-.87s-4.49.58-6.84.21C408,83,406.66,82.1,407.29,81.65Zm-3.4,9.5c.61-.62,5.66-.75,9.4-.5,3.51.23,3.18.61,6.49.76,4.06.19,4.88-.38,9-.11,2.62.18,3.08.47,5,.33,2.12-.15,2.65-.58,5-.7,1.68-.09,1.58.11,4.05.08,2.29,0,2.73-.21,4.69-.18,1.48,0,3.31,0,3.56.41s-1.71,1.38-4,1.7c-2.61.37-3.31-.36-6.68-.22s-4.17,1-7.07.88c-1.85-.06-1.75-.39-4.16-.61a62,62,0,0,0-6.46.06c-4.16,0-3.9-.44-7.95-.44-3.74,0-4.56.39-6.8.11S403.41,91.63,403.89,91.15Zm.08,9.63c2.6-.36,3.31.37,6.68.22s4.17-1,7.07-.87c1.85.05,1.75.39,4.16.61s3.24-.06,6.46-.07c4.15,0,3.9.44,8,.44,3.74,0,4.56-.38,6.8-.11s4.55,1.09,4.07,1.57-5.66.75-9.4.51c-3.51-.23-3.18-.62-6.49-.77-4.06-.18-4.88.39-9,.11-2.62-.18-3.08-.47-5-.33-2.12.16-2.65.58-5,.71-1.69.09-1.58-.12-4.05-.08-2.29,0-2.73.21-4.69.18-1.48,0-3.31-.05-3.57-.42S401.66,101.1,404,100.78Zm-3.39,9.59c2.61-.36,3.31.37,6.69.22s4.16-1,7.06-.87c1.85,0,1.76.39,4.17.61s3.24-.06,6.46-.07c4.15,0,3.9.44,8,.44,3.73,0,4.56-.38,6.8-.11s4.54,1.09,4.07,1.57-5.66.75-9.4.51c-3.51-.23-3.18-.62-6.49-.77-4.06-.18-4.88.39-9,.11-2.62-.18-3.08-.47-5-.33-2.12.16-2.65.58-5,.71-1.69.09-1.58-.12-4.05-.08-2.29,0-2.73.2-4.69.18-1.48,0-3.31,0-3.57-.42S398.28,110.69,400.58,110.37Z"/><path class="cls-5" d="M458.76,76.69c-3.4,5.9-7.9,17.55-13.34,42h1.17L470.5,53.39h-1.18a124.23,124.23,0,0,1-7.54,17.78C460.27,74.09,459.07,76.15,458.76,76.69Z"/><path class="cls-5" d="M418.41,59.83c2.35.37,3.56-.36,6.83-.21s3.49,1,6.45.87c1.89-.06,2-.39,4.6-.61a60.86,60.86,0,0,1,6.41.06c4.15,0,4.21-.43,8.26-.43,3.74,0,4.29.38,6.73.11s5.31-1.1,5.18-1.58-5.14-.75-9.05-.5c-3.67.23-3.62.62-7,.76-4.19.19-4.61-.38-8.88-.11-2.75.18-3.42.47-5.25.33-2-.15-2.25-.58-4.55-.7-1.62-.09-1.65.11-4.11.08-2.27,0-2.57-.21-4.56-.18-1.49,0-3.34.05-3.86.41S416.33,59.51,418.41,59.83Z"/><path class="cls-5" d="M416,66.78c2.35.36,3.57-.37,6.83-.22s3.49,1,6.45.87c1.89-.05,2-.39,4.6-.61a64,64,0,0,1,6.41.07c4.15,0,4.21-.44,8.27-.44,3.73,0,4.28.38,6.72.11s5.31-1.09,5.18-1.57-5.14-.75-9.05-.51c-3.67.23-3.62.62-7,.77-4.19.18-4.61-.39-8.88-.11-2.75.18-3.42.47-5.25.33-2-.16-2.25-.58-4.55-.71-1.62-.09-1.65.12-4.1.08-2.28,0-2.58-.21-4.57-.18-1.49,0-3.34,0-3.86.42S413.88,66.46,416,66.78Z"/><path class="cls-5" d="M414.19,75.07c2.24.27,3.06-.11,6.79-.11,4,0,3.8.45,8,.44,3.22,0,4-.29,6.46-.07s2.31.56,4.16.61c2.9.09,3.66-.72,7.07-.87s4.07.58,6.68.22c2.3-.33,4.34-1.26,4-1.7s-2.09-.4-3.56-.42c-2,0-2.4.15-4.69.18-2.48,0-2.37-.17-4.05-.08-2.39.13-2.93.55-5,.7-1.93.14-2.4-.15-5-.32-4.07-.28-4.9.29-9,.11-3.3-.15-3-.54-6.49-.77-3.73-.24-8.79-.11-9.4.5S411.82,74.78,414.19,75.07Z"/><path class="cls-5" d="M410.11,83.35c2.35.37,3.57-.36,6.84-.21s3.49,1,6.45.87c1.89-.06,2-.39,4.59-.61a61,61,0,0,1,6.42.06c4.15,0,4.21-.43,8.26-.43,3.73,0,4.29.38,6.72.11s5.32-1.1,5.18-1.58-5.13-.75-9-.5c-3.68.23-3.62.62-7,.76-4.19.19-4.61-.38-8.88-.11-2.75.18-3.42.47-5.26.33-2-.15-2.24-.58-4.54-.7-1.62-.09-1.66.11-4.11.08-2.27,0-2.58-.21-4.57-.18-1.49,0-3.33.05-3.85.41S408,83,410.11,83.35Z"/><path class="cls-5" d="M408,92.72c2.24.28,3.06-.1,6.8-.11,4.05,0,3.79.45,7.95.44a62,62,0,0,1,6.46-.06c2.41.22,2.31.55,4.16.61,2.9.08,3.66-.73,7.07-.88s4.07.59,6.68.22c2.31-.32,4.34-1.25,4-1.7s-2.08-.39-3.56-.41c-2,0-2.4.15-4.69.18-2.47,0-2.37-.17-4.05-.08-2.39.12-2.92.55-5,.7-1.94.14-2.4-.15-5-.33-4.08-.27-4.9.3-9,.11-3.31-.15-3-.53-6.49-.76-3.74-.25-8.79-.12-9.4.5S405.59,92.44,408,92.72Z"/><path class="cls-5" d="M403.51,102.9c2,0,2.4-.15,4.69-.18,2.47,0,2.36.17,4.05.08,2.39-.13,2.92-.55,5-.71,1.94-.14,2.4.15,5,.33,4.08.28,4.9-.29,9-.11,3.31.15,3,.54,6.49.77,3.74.24,8.79.11,9.4-.51s-1.7-1.28-4.07-1.57-3.06.11-6.8.11c-4.05,0-3.8-.45-8-.44-3.22,0-4,.28-6.46.07s-2.31-.56-4.16-.61c-2.9-.09-3.66.72-7.07.87s-4.08-.58-6.68-.22c-2.31.32-4.34,1.26-4,1.7S402,102.87,403.51,102.9Z"/><path class="cls-5" d="M400.13,112.49c2,0,2.4-.15,4.69-.18,2.47,0,2.36.17,4.05.08,2.39-.13,2.92-.55,5-.71,1.94-.14,2.4.15,5,.33,4.08.28,4.9-.29,9-.11,3.31.15,3,.54,6.49.77,3.74.24,8.79.11,9.4-.51s-1.7-1.28-4.07-1.57-3.07.11-6.8.11c-4.05,0-3.8-.45-8-.44-3.22,0-4,.28-6.46.07s-2.32-.56-4.17-.61c-2.9-.09-3.65.72-7.06.87s-4.08-.58-6.69-.22c-2.3.32-4.33,1.25-4,1.7S398.65,112.46,400.13,112.49Z"/><path class="cls-5" d="M476.42,60.2c2.24.27,3.07-.11,6.8-.11,4,0,3.8.45,7.95.43a62,62,0,0,1,6.46-.06c2.41.22,2.32.55,4.17.61,2.9.09,3.65-.72,7.06-.87s4.08.58,6.69.21c2.3-.32,4.33-1.25,4-1.7s-2.09-.39-3.57-.41c-2,0-2.4.15-4.69.18-2.47,0-2.36-.17-4.05-.08-2.39.12-2.92.55-5,.7-1.94.14-2.4-.15-5-.32-4.08-.28-4.9.29-9,.1-3.31-.14-3-.53-6.49-.76-3.74-.24-8.79-.12-9.4.5S474.05,59.91,476.42,60.2Z"/><path class="cls-5" d="M513.56,65.24c-2,0-2.4.15-4.7.18-2.47,0-2.36-.17-4.05-.08-2.38.13-2.92.55-5,.71-1.93.14-2.4-.15-5-.33-4.08-.28-4.9.29-9,.11-3.3-.15-3-.54-6.49-.77-3.74-.24-8.79-.11-9.4.51s1.7,1.28,4.07,1.57S477,67,480.77,67c4.05,0,3.8.45,8,.44,3.22,0,4-.28,6.45-.07s2.32.56,4.17.61c2.9.09,3.65-.72,7.06-.87s4.08.58,6.69.22c2.3-.32,4.33-1.25,4-1.7S515,65.27,513.56,65.24Z"/><path class="cls-5" d="M505.16,73.57c-3.68.23-3.62.62-7,.77-4.19.18-4.61-.39-8.88-.11a36.09,36.09,0,0,1-5.26.33c-2-.16-2.24-.58-4.54-.71-1.62-.09-1.66.11-4.11.08-2.27,0-2.58-.21-4.56-.18-1.49,0-3.34,0-3.86.42s.75,1.37,2.82,1.7c2.36.36,3.57-.37,6.84-.22s3.49,1,6.45.87c1.89,0,2-.39,4.59-.61s3.21.06,6.42.07c4.15,0,4.21-.44,8.26-.44,3.73,0,4.29.38,6.72.11s5.32-1.09,5.18-1.57S509.07,73.33,505.16,73.57Z"/><path class="cls-5" d="M507.71,81.82c-2,0-2.4.15-4.69.18-2.48,0-2.37-.17-4-.08-2.39.12-2.93.55-5,.7-1.94.14-2.4-.15-5-.32-4.07-.28-4.9.29-9,.1-3.3-.14-3-.53-6.49-.76-3.73-.25-8.79-.12-9.4.5s1.71,1.29,4.08,1.58,3.06-.11,6.79-.11c4.06,0,3.8.45,8,.43a62,62,0,0,1,6.46-.06c2.41.22,2.31.55,4.16.61,2.9.09,3.66-.72,7.07-.87s4.07.58,6.68.21c2.31-.32,4.34-1.25,4-1.7S509.19,81.84,507.71,81.82Z"/><path class="cls-5" d="M498.93,91.23c-3.67.23-3.62.61-7,.76-4.19.19-4.61-.38-8.88-.11-2.75.18-3.42.47-5.25.33-2-.15-2.25-.58-4.55-.7-1.62-.09-1.65.11-4.1.08-2.28,0-2.58-.21-4.57-.18-1.49,0-3.34,0-3.86.41s.75,1.38,2.83,1.7c2.35.37,3.56-.36,6.83-.22s3.49,1,6.45.88c1.89-.06,2-.39,4.6-.61a60.86,60.86,0,0,1,6.41.06c4.15,0,4.21-.44,8.27-.43,3.73,0,4.28.38,6.72.1s5.31-1.09,5.18-1.57S502.84,91,498.93,91.23Z"/><path class="cls-5" d="M501.1,101.36c-2.35-.36-3.56.37-6.83.22s-3.49-1-6.45-.87c-1.89.05-2,.39-4.6.61s-3.2-.06-6.41-.07c-4.15,0-4.21.44-8.26.44-3.74,0-4.29-.38-6.72-.11s-5.32,1.09-5.19,1.57,5.14.75,9.05.51c3.68-.23,3.62-.62,7-.77,4.19-.18,4.61.39,8.88.11,2.75-.18,3.42-.47,5.25-.33,2,.16,2.25.58,4.55.71,1.62.09,1.66-.11,4.11-.08,2.27,0,2.58.21,4.56.18,1.49,0,3.34,0,3.86-.42S503.18,101.68,501.1,101.36Z"/><path class="cls-5" d="M497.72,111c-2.35-.36-3.56.37-6.83.22s-3.49-1-6.45-.87c-1.89,0-2,.39-4.6.61a64,64,0,0,1-6.41-.07c-4.15,0-4.21.44-8.26.44-3.74,0-4.29-.38-6.73-.11s-5.31,1.09-5.18,1.57,5.14.75,9.05.51c3.67-.23,3.62-.62,7-.77,4.19-.18,4.61.39,8.88.11,2.75-.18,3.42-.47,5.25-.33,2,.16,2.25.58,4.55.71,1.62.09,1.65-.12,4.11-.08,2.27,0,2.57.2,4.56.18,1.49,0,3.34,0,3.86-.42S499.8,111.27,497.72,111Z"/></svg>