<svg id="Layer_1" data-name="Layer 1" xmlns="http://www.w3.org/2000/svg" width="120.13" height="113.45" viewBox="0 0 120.13 113.45"><defs><style>.cls-1{fill:#594632;}.cls-2{fill:#76614f;}</style></defs><path class="cls-1" d="M80.11,23.38c-1-.79-5.59-4.41-11.47-3.84-9.7.93-11.66,12.18-25.18,28S21.38,64.36,21.76,72c.49,9.72,13.28,18.21,24.6,19.45C63.25,93.26,77.17,79,83,67.21,90,53.21,91.14,32.06,80.11,23.38ZM82,45.62a79.14,79.14,0,0,1-2.6,10.18,64.52,64.52,0,0,1-5.75,13,45.71,45.71,0,0,1-6.33,8.82,33.79,33.79,0,0,1-15.68,8.76c-2.07.46-3.92.6-5.6-.33a6.74,6.74,0,0,1-3.26-4.6c-.6-5.31,12.05-7.76,22.32-16.75C78.86,52.66,81.39,34.87,83,35.48,83.8,35.78,83,39.86,82,45.62Z"/><path class="cls-2" d="M83,35.48c-1.61-.61-4.14,17.18-18,29.26-10.27,9-22.92,11.44-22.32,16.75A6.74,6.74,0,0,0,46,86.09c1.68.93,3.53.79,5.6.33a33.79,33.79,0,0,0,15.68-8.76,45.71,45.71,0,0,0,6.33-8.82,64.52,64.52,0,0,0,5.75-13A79.14,79.14,0,0,0,82,45.62C83,39.86,83.8,35.78,83,35.48Z"/></svg>