<svg id="Layer_1" data-name="Layer 1" xmlns="http://www.w3.org/2000/svg" width="110.41" height="113.45" viewBox="0 0 110.41 113.45"><defs><style>.cls-1{fill:#594633;}.cls-2{fill:#776250;}</style></defs><path class="cls-1" d="M51,94.39c.38-3.44-3.64-7.15-7.55-8.23a9.83,9.83,0,0,0-3-.33A6.86,6.86,0,0,0,39.73,80c-1.95-3.18-6.29-3.68-9.12-3.12-3.37.68-7.2,3.31-7.22,6.39a3.71,3.71,0,0,0,.87,2.51,2.55,2.55,0,0,0,1.49.76c-1.47.14-3.39,1-6.48,1.4-4.66.63-6.24-.51-7.33.83-1.38,1.71-.5,5.07,1.22,7,2.56,2.86,7.06,2.55,9.82,1.45,3.28-1.31,6.67-4.7,6.12-7.82A3.75,3.75,0,0,0,27.74,87a2.28,2.28,0,0,0-.88-.41,53.53,53.53,0,0,1,5.65-.22,22,22,0,0,1,3.63.48,17.8,17.8,0,0,0-7,5.74c-3.23,4.53-4.84,11.89-1.46,15.57a6,6,0,0,0,3.82,2c3.46.22,4.78-3.62,10.43-8.43S50.65,97.08,51,94.39ZM27.76,91.85c.09.17-.65.74-1.71,1.55a16.63,16.63,0,0,1-2,1.32,14.24,14.24,0,0,1-2.93,1.33,10.43,10.43,0,0,1-2.4.53,7.63,7.63,0,0,1-4-.88,1.77,1.77,0,0,1-.89-.9A1.53,1.53,0,0,1,14,93.53c.7-1,3.2.51,6.28.54C24.47,94.12,27.58,91.5,27.76,91.85ZM25.1,81.14c-.05-.18.76-.6,1.9-1.18A18.29,18.29,0,0,1,29.12,79a14.73,14.73,0,0,1,3-.75,10.24,10.24,0,0,1,2.38-.09,7.51,7.51,0,0,1,3.63,1.55,1.66,1.66,0,0,1,.69,1A1.49,1.49,0,0,1,38.49,82c-.84.82-3-1-5.9-1.63C28.64,79.55,25.21,81.5,25.1,81.14ZM35.33,94.48c-5.54,3.46-7.44,9.57-8,9.26-.26-.15.24-1.54.95-3.5a28.26,28.26,0,0,1,1.48-3.43,23.39,23.39,0,0,1,2.76-4.26,16.2,16.2,0,0,1,2.73-2.74,12,12,0,0,1,6-2.19,2.76,2.76,0,0,1,1.95.43,2.42,2.42,0,0,1,.89,1.8C44,91.75,39.44,91.9,35.33,94.48Z"/><path class="cls-2" d="M44.12,89.85a2.42,2.42,0,0,0-.89-1.8,2.76,2.76,0,0,0-1.95-.43,12,12,0,0,0-6,2.19,16.2,16.2,0,0,0-2.73,2.74,23.39,23.39,0,0,0-2.76,4.26,28.26,28.26,0,0,0-1.48,3.43c-.71,2-1.21,3.35-.95,3.5.53.31,2.43-5.8,8-9.26C39.44,91.9,44,91.75,44.12,89.85Z"/><path class="cls-2" d="M38.49,82a1.49,1.49,0,0,0,.36-1.18,1.66,1.66,0,0,0-.69-1,7.51,7.51,0,0,0-3.63-1.55,10.24,10.24,0,0,0-2.38.09,14.73,14.73,0,0,0-3,.75A18.29,18.29,0,0,0,27,80c-1.14.58-1.95,1-1.9,1.18.11.36,3.54-1.59,7.49-.82C35.53,80.9,37.65,82.77,38.49,82Z"/><path class="cls-1" d="M60.68,104.4C59,100.28,54,98.85,50.52,99c-4.1.15-9.12,2.52-9.74,6.15a4.32,4.32,0,0,0,.55,3.12c1.43,2.12,4.26,1.17,9.61,2.3s6.62,3,8.33,2C61.45,111.17,61.81,107.16,60.68,104.4Zm-1.84,2.07c-1.14.81-3.29-1.8-6.64-3-4.51-1.67-8.93,0-9-.48,0-.22,1-.55,2.47-1a20.78,20.78,0,0,1,2.67-.68,17.17,17.17,0,0,1,3.72-.3,12.22,12.22,0,0,1,2.82.36,8.84,8.84,0,0,1,4,2.52,2,2,0,0,1,.63,1.33A1.76,1.76,0,0,1,58.84,106.47Z"/><path class="cls-2" d="M54.89,101.3a12.22,12.22,0,0,0-2.82-.36,17.17,17.17,0,0,0-3.72.3,20.78,20.78,0,0,0-2.67.68c-1.47.47-2.5.8-2.47,1,.06.45,4.48-1.19,9,.48,3.35,1.25,5.5,3.86,6.64,3a1.76,1.76,0,0,0,.66-1.32,2,2,0,0,0-.63-1.33A8.84,8.84,0,0,0,54.89,101.3Z"/><path class="cls-2" d="M14,93.53a1.53,1.53,0,0,0-.14,1.27,1.77,1.77,0,0,0,.89.9,7.63,7.63,0,0,0,4,.88,10.43,10.43,0,0,0,2.4-.53,14.24,14.24,0,0,0,2.93-1.33,16.63,16.63,0,0,0,2-1.32c1.06-.81,1.8-1.38,1.71-1.55-.18-.35-3.29,2.27-7.44,2.22C17.24,94,14.74,92.54,14,93.53Z"/><path class="cls-1" d="M15.3,97.76c-4.22-.13-9.55,2-10.43,5.66a4.52,4.52,0,0,0,.35,3.25c1.32,2.27,4.3,1.48,9.72,3s6.61,3.53,8.44,2.58c2.32-1.22,3-5.32,2-8.24C23.92,99.67,18.85,97.86,15.3,97.76ZM23.35,106c-1.24.75-3.27-2.08-6.63-3.58-4.52-2-9.18-.64-9.21-1.11,0-.23,1.07-.5,2.61-.88a22.27,22.27,0,0,1,2.79-.52,17.65,17.65,0,0,1,3.85,0,12.27,12.27,0,0,1,2.88.55,9.2,9.2,0,0,1,3.92,2.86,2.12,2.12,0,0,1,.55,1.41A1.79,1.79,0,0,1,23.35,106Z"/><path class="cls-2" d="M19.64,100.44a12.27,12.27,0,0,0-2.88-.55,17.65,17.65,0,0,0-3.85,0,22.27,22.27,0,0,0-2.79.52c-1.54.38-2.63.65-2.61.88,0,.47,4.69-.92,9.21,1.11,3.36,1.5,5.39,4.33,6.63,3.58a1.79,1.79,0,0,0,.76-1.32,2.12,2.12,0,0,0-.55-1.41A9.2,9.2,0,0,0,19.64,100.44Z"/></svg>